<svg xmlns="http://www.w3.org/2000/svg" width="343" height="304" viewBox="0 0 343 304" version="1.1"><path d="M 159.846 5.995 C 136.500 10.860, 118.206 20.707, 101.375 37.469 C 82.229 56.536, 71.322 79.335, 67.915 107.410 C 64.595 134.772, 72.426 166.417, 87.627 187.066 C 106.035 212.071, 132.660 229.387, 161.500 235.111 C 172.083 237.211, 199.497 236.970, 209.207 234.691 C 234.563 228.741, 255.926 216.005, 273.267 196.500 C 285.554 182.680, 293.770 167.312, 297.969 150.299 C 310.732 98.580, 288.501 44.753, 243.796 19.133 C 224.433 8.037, 208.014 3.981, 183 4.115 C 173.167 4.167, 165.715 4.773, 159.846 5.995 M 174 5.728 C 145.401 8.702, 121.029 20.691, 101.143 41.569 C 80.113 63.649, 69.725 89.487, 69.613 120 C 69.558 134.748, 71.069 143.911, 75.922 158.268 C 88.738 196.184, 122.024 224.953, 163 233.528 C 173.180 235.658, 195.028 235.639, 205.500 233.489 C 229.646 228.534, 248.892 218.289, 265.698 201.447 C 306.966 160.089, 310.971 94.700, 274.998 49.606 C 256.482 26.394, 229.565 10.509, 202 6.527 C 197.215 5.836, 178.188 5.293, 174 5.728 M 172.665 12.750 C 172.416 13.162, 171.076 17.212, 169.687 21.750 L 167.162 30 169.612 30 C 170.960 30, 172.322 29.325, 172.638 28.500 C 173.285 26.815, 180 26.359, 180 28 C 180 28.550, 181.125 29, 182.500 29 C 185.758 29, 185.676 27.918, 181.767 19.284 C 178.901 12.955, 178.170 12.064, 175.809 12.034 C 174.329 12.015, 172.914 12.338, 172.665 12.750 M 189.756 12.628 C 189.474 13.108, 188.925 16.987, 188.536 21.250 C 187.976 27.391, 188.107 29.009, 189.165 29.045 C 189.899 29.070, 192.882 29.334, 195.793 29.632 C 199.210 29.982, 201.602 29.745, 202.543 28.965 C 204.294 27.511, 204.498 22, 202.800 22 C 201.867 22, 201.867 21.733, 202.800 20.800 C 204.540 19.060, 204.287 14.324, 202.415 13.606 C 199.436 12.462, 190.270 11.755, 189.756 12.628 M 210.283 18.822 C 209.428 20.845, 208.509 24.385, 208.241 26.690 C 207.787 30.591, 207.986 31.021, 211.127 32.936 C 214.959 35.272, 218.838 35.583, 221.291 33.750 C 223.467 32.124, 227.321 20.921, 226.117 19.717 C 224.088 17.688, 221.636 19.606, 220.004 24.500 C 218.767 28.211, 217.777 29.583, 216.164 29.820 C 213.157 30.263, 212.703 28.297, 214.469 22.476 C 216.379 16.179, 216.392 16.336, 213.919 15.689 C 212.249 15.252, 211.530 15.871, 210.283 18.822 M 195 17.427 C 195 18.354, 195.855 19, 197.083 19 C 199.520 19, 199.176 16.663, 196.667 16.177 C 195.680 15.985, 195 16.495, 195 17.427 M 148.262 17.817 C 147.291 18.434, 147.281 19.284, 148.217 21.763 C 149.866 26.132, 148.752 26.675, 144.613 23.519 C 142.213 21.688, 140.444 21.042, 139.047 21.485 C 136.474 22.302, 136.485 23.527, 139.133 30.712 C 141.904 38.230, 142.714 39.223, 145.057 37.969 C 146.767 37.054, 146.798 36.678, 145.466 32.903 L 144.027 28.826 148.442 31.413 C 156.785 36.302, 158.230 34.637, 154.505 24.424 C 151.881 17.231, 150.870 16.161, 148.262 17.817 M 175 21 C 175 22.100, 175.633 23, 176.406 23 C 177.320 23, 177.630 22.300, 177.290 21 C 177.002 19.900, 176.369 19, 175.883 19 C 175.398 19, 175 19.900, 175 21 M 194 23.933 C 194 26.154, 197.333 26.889, 198.541 24.933 C 199.335 23.648, 199.140 23.445, 196.250 22.557 C 194.419 21.994, 194 22.250, 194 23.933 M 122.616 30.490 C 120.504 32.089, 120.709 35.328, 123.518 44.762 C 124.930 49.506, 125.278 49.922, 127.042 48.977 C 128.119 48.401, 129 47.115, 129 46.120 C 129 43.588, 132.190 40.976, 134.537 41.586 C 135.617 41.866, 137.331 41.486, 138.347 40.740 C 140.050 39.491, 139.606 38.978, 132.684 34.192 C 128.553 31.336, 125.022 29.014, 124.837 29.032 C 124.651 29.049, 123.652 29.706, 122.616 30.490 M 237.191 35.073 C 232.481 41.899, 232.381 42.241, 234.569 44.057 C 235.904 45.165, 236.487 44.922, 238.470 42.435 C 240.768 39.553, 240.832 39.538, 242.878 41.390 C 244.878 43.199, 244.891 43.376, 243.237 46.177 C 241.731 48.726, 241.703 49.201, 243.009 50.027 C 245.601 51.665, 246.396 51.106, 250.934 44.446 C 255.070 38.378, 255.257 37.828, 253.705 36.276 C 252.153 34.725, 251.872 34.772, 249.531 36.971 C 247.090 39.264, 246.965 39.278, 245.002 37.502 C 243.121 35.799, 243.095 35.552, 244.630 33.856 C 245.972 32.373, 246.043 31.757, 245.016 30.519 C 242.900 27.969, 241.552 28.754, 237.191 35.073 M 174.302 34.020 C 142.714 38.339, 116.097 58.533, 104.194 87.210 C 95.376 108.456, 95.852 135.825, 105.401 156.493 C 109.811 166.036, 113.754 171.682, 122.277 180.655 C 138.698 197.942, 160.241 206.986, 185 206.986 C 203.272 206.986, 217.720 202.676, 232.137 192.924 C 270.579 166.921, 282.410 117.201, 259.701 77.077 C 251.613 62.787, 235.318 48.081, 219.817 41.084 C 206.861 35.235, 187.448 32.222, 174.302 34.020 M 126.015 36.750 C 126.051 38.475, 127.861 40.204, 128.937 39.539 C 129.816 38.996, 129.813 38.480, 128.926 37.411 C 127.672 35.899, 125.990 35.518, 126.015 36.750 M 167.516 37.602 C 132.107 45.479, 106.050 73.048, 100.932 108.050 C 97.991 128.165, 102.556 149.355, 113.524 166.500 C 117.551 172.795, 127.625 184, 129.258 184 C 129.783 184, 131.049 182.936, 132.072 181.635 C 135.300 177.532, 139.336 176.475, 144.396 178.407 C 146.793 179.323, 149.555 180.956, 150.533 182.036 C 152.976 184.736, 156.464 184.497, 158.848 181.466 C 159.979 180.028, 161.111 179.371, 161.467 179.946 C 162.451 181.538, 160.128 185.001, 157.374 186.048 C 154.685 187.070, 153.529 186.656, 147.325 182.446 C 142.473 179.153, 138.017 179.256, 134.532 182.740 L 131.792 185.481 135.646 188.815 C 140.949 193.401, 153.897 199.588, 163.500 202.124 C 169.425 203.689, 174.742 204.264, 184 204.343 C 202.837 204.504, 215.752 200.780, 230.529 190.925 C 241.327 183.724, 241.843 182.577, 235.615 179.622 C 229.991 176.953, 226.233 177.494, 222.564 181.500 C 218.890 185.511, 215.476 186.017, 211.861 183.086 C 208.910 180.694, 210.045 179.218, 213.158 181.398 C 216.345 183.630, 217.890 183.409, 220.274 180.379 C 222.626 177.389, 227.875 174.890, 230.634 175.446 C 233.980 176.121, 238.460 178.106, 240.211 179.691 C 242.619 181.870, 244.228 180.936, 249.497 174.303 C 267.031 152.228, 273.051 124.752, 266.093 98.558 C 258.502 69.981, 235.100 46.570, 206.446 38.888 C 195.869 36.053, 177.246 35.438, 167.516 37.602 M 180.321 40.750 C 179.982 41.712, 179.096 44.017, 178.352 45.872 C 176.739 49.895, 176.663 51, 178 51 C 178.550 51, 179 50.100, 179 49 C 179 47.637, 179.667 47, 181.094 47 C 182.346 47, 183.397 47.803, 183.710 49 C 183.998 50.100, 184.886 51, 185.684 51 C 186.591 51, 186.946 50.344, 186.631 49.250 C 186.354 48.288, 185.578 45.587, 184.905 43.250 C 183.648 38.876, 181.411 37.656, 180.321 40.750 M 190.629 42.827 C 189.594 49.090, 189.870 52, 191.500 52 C 192.500 52, 193 51, 193 49 C 193 46.667, 193.444 46, 195 46 C 196.619 46, 197 46.667, 197 49.500 C 197 51.425, 197.423 53, 197.941 53 C 199.413 53, 199.766 51.894, 200.146 46.087 C 200.388 42.380, 200.106 40.541, 199.250 40.253 C 198.464 39.989, 198 40.793, 198 42.417 C 198 44.333, 197.484 45, 196 45 C 194.557 45, 194 44.333, 194 42.607 C 194 38.497, 191.316 38.672, 190.629 42.827 M 167.133 40.900 C 166.026 41.599, 166.200 42.351, 168.047 44.850 C 169.303 46.548, 170.389 48.739, 170.461 49.719 C 170.595 51.533, 171.136 52, 173.108 52 C 173.778 52, 173.979 51.053, 173.616 49.605 C 173.285 48.287, 173.692 45.587, 174.521 43.605 C 175.713 40.752, 175.756 40, 174.726 40 C 174.011 40, 173.354 40.951, 173.266 42.113 C 173.079 44.595, 171.900 45.982, 171.327 44.392 C 170.337 41.642, 168.448 40.070, 167.133 40.900 M 108.106 43.082 C 99.754 48.161, 103.486 57.294, 112.126 52.921 C 115.797 51.063, 117 51.247, 117 53.667 C 117 54.404, 115.937 55, 114.622 55 C 111.959 55, 109.485 57.358, 110.473 58.956 C 111.650 60.861, 115.690 60.037, 118.384 57.343 C 121.960 53.767, 122.700 50.431, 120.464 47.960 C 118.174 45.429, 115.575 45.481, 111.267 48.144 C 108.035 50.142, 107.822 50.162, 108.154 48.438 C 108.350 47.420, 109.631 46.323, 111 46 C 113.779 45.344, 114.873 42.549, 112.680 41.707 C 111.899 41.408, 109.841 42.027, 108.106 43.082 M 180.651 43.466 C 179.889 45.453, 180.350 46.409, 181.803 45.854 C 182.314 45.659, 182.421 44.633, 182.041 43.573 C 181.384 41.742, 181.315 41.737, 180.651 43.466 M 160.574 46.750 C 161.310 48.813, 161.932 51.561, 161.956 52.857 C 161.988 54.587, 162.421 55.053, 163.582 54.607 C 164.452 54.273, 165.299 54, 165.464 54 C 165.629 54, 165.162 52.313, 164.426 50.250 C 163.690 48.188, 163.068 45.712, 163.044 44.750 C 163.018 43.719, 162.227 43, 161.118 43 C 159.372 43, 159.332 43.271, 160.574 46.750 M 209.426 49.525 C 207.386 52.014, 206.011 54.344, 206.369 54.702 C 206.727 55.061, 207.590 54.575, 208.287 53.623 C 209.925 51.383, 213.298 52.485, 212.500 55 C 212.176 56.019, 212.533 56.991, 213.345 57.302 C 214.378 57.698, 214.915 56.633, 215.375 53.281 C 216.733 43.373, 215.240 42.430, 209.426 49.525 M 148.431 47.117 L 146.361 48.145 148.810 53.322 C 151.756 59.549, 151.607 59.361, 152.936 58.539 C 153.694 58.071, 153.690 57.288, 152.922 55.854 C 151.469 53.140, 152.548 52.281, 154.823 54.339 C 156.697 56.035, 160 56.610, 160 55.241 C 160 54.823, 159.131 53.939, 158.070 53.276 C 157.008 52.613, 155.996 50.817, 155.820 49.285 C 155.573 47.136, 154.929 46.453, 153 46.295 C 151.625 46.182, 149.569 46.552, 148.431 47.117 M 150.615 47.814 C 149.864 49.028, 150.882 52, 152.048 52 C 153.764 52, 154.183 49.755, 152.737 48.308 C 151.808 47.380, 151 47.191, 150.615 47.814 M 256.329 49.813 C 252.384 51.296, 248.833 52.834, 248.436 53.231 C 247.391 54.275, 249.944 57, 251.967 57 C 254.389 57, 257.179 60.370, 256.412 62.368 C 255.792 63.986, 257.483 67, 259.011 67 C 259.432 67, 261.581 63.513, 263.786 59.250 C 267.527 52.019, 267.694 51.349, 266.276 49.250 C 264.447 46.542, 265.131 46.504, 256.329 49.813 M 211.729 48.604 C 211.328 49.005, 211 50.023, 211 50.867 C 211 51.992, 211.296 52.104, 212.113 51.287 C 212.724 50.676, 213.053 49.657, 212.842 49.025 C 212.631 48.392, 212.130 48.203, 211.729 48.604 M 220 49.469 C 220 50.363, 220.586 50.712, 221.500 50.362 C 223.579 49.564, 223.365 50.819, 220.597 55.659 C 218.880 58.663, 218.522 60.122, 219.309 60.909 C 220.852 62.452, 222 62.262, 222 60.465 C 222 59.220, 223.873 55.508, 225.752 53.029 C 225.948 52.770, 226.484 53.165, 226.943 53.907 C 227.401 54.649, 228.284 54.942, 228.905 54.559 C 230.530 53.555, 229.406 52.248, 224.972 49.986 C 220.315 47.610, 220 47.577, 220 49.469 M 140.494 52.010 C 139.526 53.577, 145.997 62.938, 147.619 62.316 C 149.078 61.756, 149.541 60, 148.229 60 C 147.805 60, 146.352 57.975, 145 55.500 C 142.493 50.911, 141.600 50.219, 140.494 52.010 M 259.008 53.974 C 257.885 54.684, 257.800 55.200, 258.666 56.066 C 259.531 56.931, 260.093 56.694, 260.943 55.107 C 262.146 52.858, 261.434 52.440, 259.008 53.974 M 231.667 55.667 C 230.452 56.881, 230.976 57.947, 232.500 57.362 C 233.325 57.045, 234 57.223, 234 57.758 C 234 58.796, 230.178 64.074, 228.656 65.138 C 227.685 65.817, 228.609 68, 229.867 68 C 230.279 68, 231.940 66.211, 233.558 64.024 C 236.681 59.803, 238 59.053, 238 61.500 C 238 62.325, 238.450 63, 239 63 C 241.084 63, 239.870 60.397, 236.553 57.750 C 232.795 54.751, 232.646 54.688, 231.667 55.667 M 132.033 58.750 C 132.051 59.712, 132.869 62.827, 133.852 65.671 C 135.275 69.789, 135.930 70.638, 137.069 69.844 C 138.162 69.083, 138.205 68.728, 137.250 68.341 C 136.563 68.062, 136 67.182, 136 66.385 C 136 64.404, 139.010 63.398, 140.025 65.040 C 140.704 66.140, 141.123 66.143, 142.428 65.060 C 143.814 63.909, 143.363 63.337, 138.754 60.400 C 132.691 56.536, 131.988 56.363, 132.033 58.750 M 92.958 61.078 C 91.542 63.725, 91.862 64.482, 97.597 72.023 C 101.968 77.769, 102.443 78.114, 103.674 76.431 C 104.408 75.427, 104.761 73.822, 104.457 72.865 C 103.745 70.621, 106.005 67, 108.118 67 C 110.054 67, 112.591 64.258, 111.586 63.252 C 110.889 62.556, 97.595 59.122, 95.285 59.042 C 94.617 59.019, 93.570 59.935, 92.958 61.078 M 134.389 62.570 C 134.725 63.447, 135 64.378, 135 64.641 C 135 64.903, 135.450 64.840, 136 64.500 C 137.484 63.583, 137.213 62.296, 135.389 61.596 C 134.209 61.143, 133.941 61.404, 134.389 62.570 M 267.250 64.613 C 260.973 68.198, 260.231 69.235, 261.973 71.991 C 262.798 73.296, 263.283 73.264, 265.871 71.736 C 268.800 70.005, 268.843 70.014, 270.846 72.745 C 273.478 76.334, 275.759 74.760, 273.885 70.648 C 272.473 67.548, 273.700 65.633, 275.367 68.337 C 278.367 73.200, 278.808 73.556, 280.172 72.211 C 281.246 71.151, 281.004 70.082, 278.811 66.211 C 277.344 63.620, 275.549 61.397, 274.822 61.272 C 274.095 61.146, 270.688 62.649, 267.250 64.613 M 126.474 63.042 C 125.974 63.851, 126.112 64.537, 126.823 64.774 C 127.470 64.990, 128 66.020, 128 67.062 C 128 68.735, 127.698 68.820, 125.428 67.785 C 123.349 66.838, 122.687 66.888, 121.970 68.048 C 121.294 69.142, 121.904 69.723, 124.534 70.492 C 126.432 71.046, 128.939 72.327, 130.105 73.337 C 131.708 74.725, 132.504 74.891, 133.363 74.016 C 134.215 73.148, 133.988 72.438, 132.454 71.179 C 131.329 70.256, 129.709 67.745, 128.855 65.601 C 127.748 62.819, 127.065 62.085, 126.474 63.042 M 99 66.500 C 99.685 67.325, 100.640 68, 101.122 68 C 101.605 68, 102 67.325, 102 66.500 C 102 65.638, 101.098 65, 99.878 65 C 98.104 65, 97.960 65.247, 99 66.500 M 237.179 67.921 C 232.576 69.405, 232.070 69.813, 233.429 70.941 C 234.483 71.816, 235 71.875, 235 71.122 C 235 69.448, 237.973 69.766, 238.643 71.513 C 238.963 72.345, 238.734 73.615, 238.136 74.337 C 237.347 75.287, 237.372 75.972, 238.229 76.829 C 239.137 77.737, 240.166 76.795, 242.682 72.755 C 244.482 69.865, 245.965 67.162, 245.977 66.750 C 246.011 65.623, 243.104 66.010, 237.179 67.921 M 183.232 74.500 C 180.099 84.521, 179.016 92.783, 179.008 106.750 C 178.999 120.024, 178.971 120.080, 173.421 117.970 C 168.989 116.285, 155.894 114.789, 151.432 115.458 L 147.282 116.080 140.203 130.790 C 125.176 162.011, 124.208 164.324, 124.731 167.750 C 125.124 170.325, 125.702 171, 127.514 171 C 132.041 171, 153.630 175.071, 159.635 177.057 C 163.009 178.173, 168.722 180.867, 172.330 183.043 C 178.043 186.489, 179.669 187, 184.918 187 C 189.592 187, 191.907 186.428, 195.223 184.453 C 208.645 176.460, 219.770 172.965, 236.750 171.407 L 244 170.742 244 167.003 C 244 164.354, 241.425 157.908, 235.163 144.882 C 230.303 134.772, 225.290 124.176, 224.024 121.335 C 222.072 116.959, 221.216 116.076, 218.420 115.551 C 214.167 114.753, 202.881 115.812, 196.568 117.602 C 193.856 118.371, 191.539 119, 191.419 119 C 191.299 119, 191.030 113.263, 190.821 106.250 C 190.520 96.145, 190.048 92.774, 188.546 90 C 187.254 87.615, 186.454 83.473, 186.036 77 L 185.422 67.500 183.232 74.500 M 239.143 68.890 C 238.197 69.490, 238.122 69.957, 238.893 70.434 C 240.162 71.218, 242 70.334, 242 68.941 C 242 67.778, 240.928 67.759, 239.143 68.890 M 86.065 73.250 C 85.463 74.805, 85.660 76.234, 86.703 77.876 C 87.959 79.855, 87.985 80.395, 86.855 81.110 C 86.110 81.583, 84.757 81.976, 83.848 81.985 C 82.912 81.993, 81.734 83.325, 81.130 85.057 C 80.191 87.750, 80.269 88.052, 81.782 87.594 C 87.587 85.837, 92.547 85.222, 94.120 86.064 C 97.428 87.835, 100 87.198, 100 84.608 C 100 82.887, 99.295 82.040, 97.481 81.585 C 96.036 81.222, 93.439 78.832, 91.387 75.976 C 89.421 73.239, 87.615 71, 87.374 71 C 87.133 71, 86.544 72.013, 86.065 73.250 M 117.036 74.433 C 114.803 78.605, 116.311 80.330, 121.512 79.551 C 125.200 78.997, 126 79.156, 126 80.439 C 126 81.297, 125.325 82, 124.500 82 C 123.675 82, 123 82.450, 123 83 C 123 83.550, 123.659 84, 124.465 84 C 126.479 84, 128.251 80.366, 127.457 77.863 C 126.819 75.853, 125.174 75.683, 120.059 77.101 C 119.267 77.320, 118.447 76.713, 118.236 75.750 C 117.994 74.642, 118.452 74, 119.486 74 C 120.383 74, 120.840 73.550, 120.500 73 C 119.504 71.388, 118.427 71.833, 117.036 74.433 M 246.055 76.531 C 244.160 77.869, 242.135 79.140, 241.555 79.357 C 240.852 79.619, 240.903 80.178, 241.708 81.033 C 242.684 82.070, 243.208 82.072, 244.445 81.046 C 246.097 79.675, 249 80.277, 249 81.990 C 249 82.569, 247.879 83.554, 246.508 84.178 C 244.622 85.038, 244.277 85.629, 245.091 86.610 C 245.948 87.642, 247.162 87.254, 251.064 84.703 C 255.554 81.766, 257.176 78.979, 253.875 79.872 C 253.119 80.076, 251.713 80.466, 250.750 80.739 C 248.554 81.359, 248.320 78.198, 250.500 77.362 C 252.310 76.667, 252.513 73.980, 250.750 74.049 C 250.063 74.076, 247.950 75.193, 246.055 76.531 M 278.002 80.498 C 277.272 81.377, 276.570 83.763, 276.442 85.798 C 276.117 90.955, 276.106 91, 275.107 91 C 273.622 91, 272.891 87.836, 274.052 86.437 C 274.837 85.491, 274.814 84.522, 273.969 82.942 L 272.799 80.756 270.727 82.829 C 268.869 84.686, 268.775 85.306, 269.818 88.788 C 271.461 94.272, 274.297 96.632, 277.780 95.413 C 280.215 94.561, 280.532 93.907, 280.805 89.165 C 281.144 83.263, 283.500 82.239, 283.500 87.993 C 283.500 92.089, 285.572 93.034, 287.117 89.643 C 289.704 83.965, 281.748 75.984, 278.002 80.498 M 111.980 83.038 C 109.668 87.358, 114.329 91.271, 117.733 87.867 C 118.356 87.244, 119.683 87.053, 120.683 87.442 C 122.376 88.100, 122.347 88.273, 120.264 89.973 C 118.429 91.470, 118.301 91.901, 119.545 92.379 C 121.676 93.197, 123.789 88.462, 122.315 86.172 C 121.214 84.462, 119.234 84.282, 115.250 85.529 C 113.554 86.060, 113 85.835, 113 84.617 C 113 83.727, 113.450 83, 114 83 C 114.550 83, 115 82.550, 115 82 C 115 80.267, 113.116 80.914, 111.980 83.038 M 252.770 88.339 C 249.659 89.760, 248.033 91.128, 248.020 92.333 C 248.009 93.342, 248.338 93.994, 248.750 93.782 C 249.162 93.571, 251.637 92.387, 254.250 91.152 C 256.863 89.917, 259 88.252, 259 87.453 C 259 85.628, 258.567 85.690, 252.770 88.339 M 87.500 93.663 C 78.642 95.262, 78.179 95.512, 77.779 98.915 C 77.546 100.899, 78.704 102.023, 84.856 105.781 C 90.735 109.372, 92.389 109.996, 93.091 108.887 C 94.275 107.017, 94.228 105, 93 105 C 92.450 105, 92 103.425, 92 101.500 C 92 98.667, 92.381 98, 94 98 C 95.556 98, 96 97.333, 96 95 C 96 93.350, 95.888 92.049, 95.750 92.109 C 95.612 92.169, 91.900 92.868, 87.500 93.663 M 107 95.288 C 107 96.870, 115.887 104.446, 116.741 103.593 C 117.078 103.255, 116.575 102.410, 115.623 101.713 C 113.383 100.076, 114.515 96.640, 117.073 97.309 C 118.568 97.700, 120 96.286, 120 94.418 C 120 94.188, 117.075 94, 113.500 94 C 108.864 94, 107 94.369, 107 95.288 M 254.250 95.341 C 251.229 96.083, 250 96.900, 250 98.167 C 250 99.639, 250.567 99.842, 253.250 99.331 L 256.500 98.712 254.250 101.170 C 251.893 103.746, 251.306 106, 252.992 106 C 253.537 106, 254.535 105.116, 255.210 104.036 C 255.996 102.777, 257.166 102.242, 258.468 102.546 C 261.922 103.352, 263.344 101.647, 262.587 97.610 C 261.847 93.667, 261.480 93.568, 254.250 95.341 M 111 98 C 111 98.550, 111.675 99, 112.500 99 C 113.325 99, 114 98.550, 114 98 C 114 97.450, 113.325 97, 112.500 97 C 111.675 97, 111 97.450, 111 98 M 257.500 98 C 257.160 98.550, 257.161 99.451, 257.502 100.003 C 258.233 101.186, 262 99.479, 262 97.965 C 262 96.690, 258.292 96.719, 257.500 98 M 280.250 98.639 C 274.708 99.968, 274 100.414, 274 102.569 C 274 105.376, 274.565 105.436, 284 103.637 C 289.893 102.514, 290.500 102.170, 290.500 99.949 C 290.500 96.878, 288.606 96.636, 280.250 98.639 M 84 99.465 C 84 99.720, 84.900 100.411, 86 101 C 87.596 101.854, 88 101.760, 88 100.535 C 88 99.667, 87.131 99, 86 99 C 84.900 99, 84 99.209, 84 99.465 M 260 107.666 C 254.328 108.560, 253 109.114, 253 110.586 C 253 111.583, 253.624 111.959, 254.750 111.640 C 255.713 111.369, 258.413 110.849, 260.750 110.485 C 263.431 110.068, 265 109.303, 265 108.412 C 265 106.995, 264.620 106.938, 260 107.666 M 76 111.477 C 76 113.043, 76.959 114.582, 78.606 115.662 L 81.213 117.369 78.606 119.268 C 77.041 120.409, 76 122.132, 76 123.583 C 76 126.615, 76.646 126.605, 81.215 123.500 C 83.668 121.833, 86.267 121, 89.013 121 C 92.917 121, 93.116 120.856, 92.816 118.250 C 92.540 115.851, 91.970 115.429, 88.352 114.946 C 86.070 114.642, 82.613 113.179, 80.668 111.696 C 76.329 108.386, 76 108.371, 76 111.477 M 275.380 110.452 C 274.477 112.804, 275.886 114, 279.559 114 C 281.452 114, 283 114.450, 283 115 C 283 115.550, 282.598 116, 282.106 116 C 281.614 116, 279.838 117.283, 278.160 118.850 C 275.958 120.907, 275.265 122.299, 275.671 123.850 C 276.170 125.757, 276.926 125.998, 282.367 125.986 C 290.931 125.967, 293 125.266, 293 122.383 C 293 120.251, 292.552 119.997, 288.750 119.968 C 284.742 119.938, 284.614 119.850, 286.500 118.428 C 291.338 114.779, 293 112.881, 293 111.007 C 293 109.155, 292.343 109, 284.469 109 C 277.933 109, 275.807 109.340, 275.380 110.452 M 113.500 111 C 113.840 111.550, 114.541 112, 115.059 112 C 115.577 112, 116 111.550, 116 111 C 116 110.450, 115.298 110, 114.441 110 C 113.584 110, 113.160 110.450, 113.500 111 M 106 115.418 C 106 120.227, 108.985 121.357, 112.159 117.750 L 114.139 115.500 113.551 118.250 C 113.211 119.836, 113.393 121, 113.981 121 C 114.541 121, 115 119.425, 115 117.500 C 115 114.688, 114.614 114, 113.035 114 C 111.955 114, 110.582 114.913, 109.985 116.028 C 109.388 117.143, 108.450 117.778, 107.901 117.439 C 107.257 117.041, 107.319 116.321, 108.074 115.411 C 109 114.295, 108.906 114, 107.622 114 C 106.730 114, 106 114.638, 106 115.418 M 262 115.500 C 260.625 116.286, 258.262 116.945, 256.750 116.965 C 254.988 116.987, 254 117.539, 254 118.500 C 254 119.424, 254.938 120, 256.443 120 C 257.786 120, 260.486 120.944, 262.443 122.099 C 265.494 123.899, 266 123.970, 266 122.599 C 266 121.683, 265.171 121, 264.059 121 C 262.991 121, 261.854 120.573, 261.531 120.050 C 260.850 118.948, 264.426 116.759, 265.369 117.702 C 265.716 118.049, 266 117.358, 266 116.167 C 266 113.649, 265.410 113.551, 262 115.500 M 142.110 132.250 C 138.377 140.088, 133.612 149.999, 131.521 154.277 C 129.431 158.554, 127.923 162.257, 128.172 162.505 C 128.420 162.754, 133.698 163.665, 139.900 164.530 C 152.572 166.297, 166.199 169.635, 176.250 173.432 L 183 175.983 183 150.115 L 183 124.246 178.160 122.164 C 171.118 119.135, 165.505 118.052, 156.698 118.024 L 148.896 118 142.110 132.250 M 198.294 119.534 C 195.430 120.306, 191.493 121.603, 189.544 122.417 L 186 123.898 186 149.940 L 186 175.983 192.630 173.487 C 203.476 169.405, 216.813 166.107, 228.957 164.506 C 235.236 163.678, 240.489 163, 240.631 163 C 241.040 163, 236.809 153.679, 229.510 138.500 C 225.807 130.800, 222.147 123.037, 221.375 121.250 L 219.973 118 211.737 118.066 C 207.206 118.102, 201.157 118.763, 198.294 119.534 M 103 126.441 C 103 130.666, 104.340 133.055, 105.817 131.463 C 106.192 131.058, 105.935 130.524, 105.244 130.278 C 102.563 129.320, 105.354 128, 110.059 128 C 114.192 128, 115 127.699, 115 126.159 C 115 124.553, 114.446 124.401, 110.689 124.971 C 105.204 125.804, 103.487 125.323, 105.081 123.403 C 105.998 122.297, 105.901 122, 104.622 122 C 103.369 122, 103 123.011, 103 126.441 M 254 125 C 254 125.550, 254.675 126, 255.500 126 C 256.333 126, 257 126.889, 257 128 C 257 129.333, 256.333 130, 255 130 C 253.740 130, 253 130.667, 253 131.802 C 253 133.448, 253.519 133.518, 259 132.612 C 262.727 131.995, 265 131.130, 265 130.326 C 265 129.615, 262.765 127.901, 260.033 126.517 C 254.473 123.699, 254 123.580, 254 125 M 155.500 126.721 C 156.050 127.247, 159.875 128.194, 164 128.826 C 168.125 129.458, 172.512 130.258, 173.750 130.604 C 175.073 130.974, 176 130.793, 176 130.164 C 176 129.575, 174.313 128.590, 172.250 127.974 C 167.140 126.448, 154.204 125.480, 155.500 126.721 M 198.734 127.417 C 189.492 129.903, 190.936 131.544, 200.569 129.503 C 204.381 128.695, 208.738 128.027, 210.250 128.017 C 211.762 128.008, 213 127.550, 213 127 C 213 125.618, 204.499 125.866, 198.734 127.417 M 258 128.417 C 258 129.287, 258.712 130, 259.583 130 C 261.349 130, 261.042 127.847, 259.188 127.229 C 258.534 127.011, 258 127.546, 258 128.417 M 112.500 134.611 C 110.850 135.325, 108.305 135.930, 106.844 135.955 C 104.688 135.991, 104.286 136.377, 104.710 138 C 105.078 139.404, 106.074 140, 108.058 140 C 110.472 140, 113.581 141.943, 111.309 142.032 C 109.139 142.117, 106.857 144.973, 107.455 146.857 C 108.050 148.731, 108.310 148.768, 111.513 147.430 C 113.396 146.644, 116.061 146, 117.436 146 C 119.192 146, 119.774 145.575, 119.389 144.572 C 118.915 143.337, 118.279 143.336, 114.671 144.564 C 110.862 145.859, 110.674 145.847, 112.500 144.423 C 113.600 143.565, 115.126 142.503, 115.890 142.063 C 117.778 140.977, 116.229 138.707, 113.998 139.290 C 113.021 139.546, 111.640 139.396, 110.930 138.957 C 110.080 138.431, 110.896 137.923, 113.319 137.468 C 117.090 136.761, 117.516 136.313, 116.235 134.406 C 115.711 133.626, 114.639 133.685, 112.500 134.611 M 152 134.488 C 152 135.562, 153.086 136.010, 155.750 136.035 C 157.813 136.054, 162.425 136.714, 166 137.500 C 173.676 139.188, 176.331 139.345, 175.539 138.064 C 174.963 137.131, 164.328 134.643, 156.250 133.551 C 152.871 133.094, 152 133.286, 152 134.488 M 211 133.680 C 207.113 134.079, 193.984 136.999, 192.643 137.762 C 190.283 139.106, 194.774 139.571, 198.702 138.389 C 201.177 137.644, 206.081 136.740, 209.601 136.379 C 214.013 135.927, 216 135.301, 216 134.362 C 216 133.613, 215.662 133.072, 215.250 133.160 C 214.838 133.248, 212.925 133.482, 211 133.680 M 252 137.414 C 252 138.265, 253.125 139.244, 254.500 139.589 C 257.275 140.286, 257.234 140.226, 256.410 142.375 C 255.986 143.478, 254.996 143.749, 252.910 143.332 C 250.777 142.905, 250 143.134, 250 144.186 C 250 145.071, 251.911 146.112, 254.978 146.898 C 261.583 148.590, 261.455 148.593, 261.808 146.756 C 262.007 145.725, 261.295 145.038, 259.808 144.827 C 256.349 144.337, 256.864 141.500, 260.412 141.500 C 264.917 141.500, 264.538 139.472, 259.778 138.103 C 257.425 137.426, 254.713 136.646, 253.750 136.369 C 252.620 136.044, 252 136.414, 252 137.414 M 147 141.885 C 147 142.371, 149.588 143.085, 152.750 143.470 C 158.250 144.140, 168.982 146.249, 173.750 147.597 C 178.214 148.859, 175.916 146.134, 171.250 144.632 C 161.673 141.549, 147 139.887, 147 141.885 M 206.500 142.436 C 197.070 144.385, 192 145.995, 192 147.039 C 192 148.342, 192.570 148.284, 201.090 146.106 C 205.166 145.064, 211.537 143.886, 215.250 143.489 C 218.963 143.092, 222 142.369, 222 141.884 C 222 140.655, 213.685 140.951, 206.500 142.436 M 145 149.661 C 145 150.166, 149.613 151.314, 155.250 152.211 C 160.887 153.108, 167.680 154.585, 170.345 155.493 C 175.111 157.117, 177.302 156.902, 175.397 154.997 C 172.791 152.391, 145 147.512, 145 149.661 M 209.360 150.476 C 201.387 151.923, 194.976 153.802, 193.567 155.104 C 191.631 156.893, 193.803 156.866, 200.047 155.023 C 205.362 153.454, 219.407 151, 223.072 151 C 223.583 151, 224 150.550, 224 150 C 224 148.683, 218.199 148.872, 209.360 150.476 M 140.654 156.679 C 139.127 158.206, 140.375 158.748, 146.792 159.344 C 150.527 159.691, 157.164 160.928, 161.542 162.093 C 173.147 165.182, 174 165.331, 174 164.262 C 174 161.977, 142.516 154.817, 140.654 156.679 M 218.821 157.077 C 213.132 157.912, 196.153 162.513, 195.183 163.484 C 193.447 165.220, 197.097 164.914, 205.206 162.644 C 210.318 161.213, 217.537 159.745, 221.250 159.383 C 225.957 158.923, 228 158.312, 228 157.362 C 228 155.870, 227.214 155.846, 218.821 157.077 M 127.480 166.033 C 126.328 167.896, 128.007 168.742, 134.228 169.433 C 142.624 170.365, 158.550 173.837, 163.488 175.812 C 165.681 176.689, 170.399 179.116, 173.972 181.204 C 183.122 186.551, 185.628 186.351, 200.443 179.094 C 213.578 172.661, 221.188 170.448, 233.794 169.397 C 239.412 168.928, 242 168.311, 242 167.440 C 242 165.406, 240.174 165.285, 230.229 166.661 C 217.249 168.458, 205.728 171.320, 194.400 175.563 C 189.101 177.548, 184.030 178.945, 183.132 178.669 C 182.235 178.392, 177.742 176.801, 173.148 175.132 C 163.456 171.612, 151.647 168.647, 141 167.059 C 136.875 166.444, 132.280 165.744, 130.789 165.503 C 129.298 165.263, 127.809 165.501, 127.480 166.033 M 258.084 172.750 C 255.845 175.363, 254.010 177.954, 254.006 178.509 C 254.003 179.065, 253.100 180.081, 252 180.768 C 249.105 182.576, 249.502 184.028, 254.062 188.319 C 258.280 192.288, 258.576 193.621, 255.641 195.429 C 254.204 196.313, 253.183 195.735, 249.784 192.110 C 247.021 189.164, 245.278 188.013, 244.483 188.610 C 243.832 189.100, 241.450 190.732, 239.189 192.237 L 235.080 194.975 236.551 199.143 C 237.360 201.436, 237.885 203.448, 237.719 203.614 C 237.553 203.780, 235.891 202.614, 234.025 201.021 C 231.556 198.914, 230.184 198.366, 228.984 199.008 C 224.848 201.222, 224.913 202.392, 229.555 209.311 C 234.225 216.273, 234.848 216.752, 236.747 214.853 C 237.610 213.990, 237.151 212.627, 234.899 209.353 C 233.252 206.959, 232.149 205, 232.449 205 C 232.749 205, 234.725 206.564, 236.840 208.475 C 240.105 211.424, 240.944 211.761, 242.389 210.705 C 243.954 209.561, 243.966 209.163, 242.545 205.762 C 240.131 199.986, 240.716 199.309, 244.094 203.971 C 246.851 207.778, 247.351 208.077, 248.696 206.733 C 250.041 205.388, 249.814 204.613, 246.602 199.593 C 244.621 196.495, 243 193.691, 243 193.360 C 243 193.029, 244.800 194.613, 246.999 196.879 C 251.978 202.010, 254.642 202.147, 259.543 197.524 C 262.652 194.592, 263.122 193.614, 262.547 191.274 C 262.172 189.748, 260.229 186.813, 258.230 184.750 C 253.472 179.843, 254.970 179.982, 261.716 185.075 C 266.080 188.370, 267.390 188.921, 268.557 187.953 C 270.608 186.250, 270.345 184.355, 267.810 182.580 C 265.032 180.633, 266.149 179.477, 270.450 179.847 C 273.006 180.068, 274.176 179.591, 275.424 177.818 C 277.047 175.514, 277.031 175.497, 272.787 175 C 269.514 174.617, 268.438 174.033, 268.175 172.500 C 267.800 170.316, 265.335 168, 263.387 168 C 262.710 168, 260.324 170.137, 258.084 172.750 M 94.200 173.200 C 92.284 175.116, 92.803 178.495, 95.452 181.354 C 98.668 184.824, 100.777 184.692, 106.641 180.653 C 115.127 174.807, 112.808 170.348, 104.165 175.894 C 98.494 179.533, 98 179.628, 98 177.082 C 98 174.663, 97.001 172, 96.093 172 C 95.712 172, 94.860 172.540, 94.200 173.200 M 260.345 175.543 C 260.019 176.392, 260.014 177.347, 260.333 177.667 C 261.342 178.676, 264 177.128, 264 175.531 C 264 173.535, 261.112 173.545, 260.345 175.543 M 107.750 183.786 C 104.037 185.270, 101 186.995, 101 187.620 C 101 189.173, 103.705 191.300, 104.811 190.617 C 106.104 189.818, 110.342 194.637, 109.519 195.970 C 108.787 197.153, 110.633 200, 112.131 200 C 112.618 200, 114.691 196.615, 116.739 192.477 C 119.677 186.538, 120.233 184.591, 119.378 183.227 C 117.774 180.668, 115.248 180.789, 107.750 183.786 M 111.587 187.313 C 110.184 188.339, 110.016 188.892, 110.936 189.460 C 112.381 190.353, 114.396 188.689, 113.851 187.053 C 113.591 186.273, 112.901 186.352, 111.587 187.313 M 118.427 195.550 C 113.971 201.794, 113.841 202.165, 115.627 203.518 C 118.033 205.340, 118.657 205.337, 119.362 203.500 C 119.678 202.675, 120.986 202, 122.268 202 C 124.363 202, 124.555 202.371, 124.170 205.669 C 123.851 208.404, 124.205 209.677, 125.562 210.669 C 128.478 212.801, 128.999 212.286, 129.015 207.250 C 129.035 201.242, 129.595 200.455, 134.496 199.553 L 138.492 198.817 136.034 196.827 C 134.050 195.220, 132.729 194.964, 129.177 195.496 L 124.777 196.156 126.360 193.896 C 127.529 192.227, 127.657 191.292, 126.849 190.318 C 124.838 187.895, 123.134 188.954, 118.427 195.550 M 283.500 199.454 C 282.950 199.664, 280.826 200.116, 278.779 200.458 C 273.685 201.309, 269.148 205.416, 266.375 211.688 C 263.477 218.240, 259.194 221.475, 241 230.851 C 227.957 237.572, 215.011 242.366, 202.500 245.107 C 194.978 246.754, 170.763 246.727, 162 245.060 C 148.014 242.401, 130.445 235.085, 117.730 226.624 C 107.974 220.133, 106.075 218.208, 102.625 211.312 C 101.197 208.459, 98.371 204.859, 96.344 203.312 C 93.108 200.843, 91.631 200.457, 84.238 200.144 C 74.593 199.735, 68.903 201.051, 54.725 206.967 C 38.960 213.545, 30.045 219.379, 32.304 221.638 C 32.708 222.041, 35.738 222.690, 39.038 223.079 C 42.338 223.468, 45.722 224.354, 46.558 225.048 C 47.896 226.158, 47.789 226.620, 45.664 228.905 C 40.567 234.385, 38.067 239.471, 37.095 246.336 C 36.109 253.295, 36.423 256, 38.217 256 C 38.768 256, 41.696 253.737, 44.723 250.970 C 61.028 236.068, 80 228.725, 80 237.316 C 80 240.099, 88.704 248.751, 98.765 255.970 C 106.154 261.271, 119.290 268.200, 129.085 271.963 C 142.744 277.210, 168.488 281.987, 183.151 281.995 C 198.194 282.003, 221.745 277.625, 237.089 271.967 C 259.341 263.763, 288 243.925, 288 236.728 C 288 235.055, 288.775 233.656, 290.093 232.950 C 295.524 230.043, 316.830 241.688, 328.437 253.908 C 330.052 255.609, 331.740 257, 332.187 257 C 333.545 257, 333.096 246.687, 331.505 241.328 C 330.624 238.362, 328.320 234.373, 325.900 231.624 C 322.591 227.864, 322.022 226.679, 322.976 225.529 C 324.989 223.103, 330.725 221.774, 336.035 222.505 C 345.247 223.772, 341.969 220.723, 323.744 211.072 C 310.280 203.943, 288.331 197.607, 283.500 199.454 M 74.500 202.479 C 65.950 204.360, 56.739 208.023, 43.778 214.695 L 32.500 220.500 39 221.071 C 51.150 222.137, 53.224 225.488, 46.130 232.590 C 41.112 237.614, 39.017 242.369, 39.006 248.757 L 39 252.014 46.018 246.121 C 54.255 239.205, 64.667 233.479, 71.780 231.954 C 75.992 231.050, 77.371 231.140, 79.977 232.488 L 83.110 234.108 89.805 228.148 C 101.050 218.138, 102.345 216.510, 101.558 213.376 C 99.788 206.322, 92.375 200.988, 84.500 201.101 C 82.300 201.133, 77.800 201.753, 74.500 202.479 M 136.086 206.250 C 128.055 213.178, 128.039 214.212, 135.958 214.412 C 138.549 214.478, 139.717 215.098, 140.617 216.885 C 141.745 219.124, 143.741 220.950, 145.098 220.985 C 145.428 220.993, 146.245 217.079, 146.916 212.286 C 148.034 204.292, 147.990 203.466, 146.376 202.286 C 143.607 200.261, 142.560 200.664, 136.086 206.250 M 276.274 203.024 C 271.999 205.211, 268.683 209.388, 267.518 214.055 C 266.957 216.307, 267.946 217.584, 275.852 224.810 L 284.823 233.009 287.774 231.315 C 290.347 229.838, 291.425 229.777, 296.159 230.836 C 303.549 232.490, 316.792 240.159, 324.577 247.292 L 331 253.177 331 250.203 C 331 244.134, 327.711 236.655, 322.930 231.854 C 319.280 228.189, 318.504 226.850, 319.254 225.511 C 320.627 223.057, 326.224 221, 331.527 221 C 334.052 221, 335.874 220.605, 335.576 220.122 C 334.619 218.574, 310.630 207.197, 302.731 204.546 C 298.531 203.136, 291.811 201.731, 287.798 201.423 C 281.588 200.946, 279.870 201.185, 276.274 203.024 M 221 203.008 C 220.175 203.546, 215.749 205.140, 211.165 206.551 C 204.685 208.545, 202.961 209.455, 203.415 210.640 C 203.737 211.478, 204 212.341, 204 212.557 C 204 212.773, 205.265 212.697, 206.812 212.388 C 209.520 211.846, 209.686 212.049, 211.316 217.913 C 212.958 223.820, 214.071 224.875, 216.821 223.132 C 217.902 222.446, 217.838 221.249, 216.464 216.523 C 215.065 211.711, 215.011 210.608, 216.143 209.891 C 219.263 207.914, 221.106 208.989, 223.189 214 C 224.649 217.514, 225.831 219, 227.165 219 C 228.209 219, 229.299 218.385, 229.587 217.634 C 230.125 216.231, 224.224 201.988, 223.116 202.015 C 222.777 202.024, 221.825 202.470, 221 203.008 M 150.143 212.250 C 147.551 220.993, 147.526 221.604, 149.724 222.447 C 151.524 223.138, 154 220.743, 154 218.309 C 154 215.486, 155.979 217.209, 156.972 220.897 C 157.936 224.476, 159.501 226, 162.210 226 C 162.875 226, 163.015 224.498, 162.595 221.867 C 162.036 218.372, 162.256 217.509, 164.024 216.271 C 165.440 215.279, 166.015 213.950, 165.807 212.153 C 165.547 209.909, 164.575 209.162, 159.500 207.309 C 156.200 206.105, 153.228 205.092, 152.896 205.059 C 152.563 205.027, 151.324 208.262, 150.143 212.250 M 140.232 209 C 139.190 210.668, 139.233 211, 140.492 211 C 141.321 211, 142 210.812, 142 210.582 C 142 210.352, 142.273 209.452, 142.607 208.582 C 143.476 206.316, 141.714 206.627, 140.232 209 M 167.626 210.533 C 166.772 212.759, 167.692 214, 170.197 214 C 172.158 214, 172.238 214.371, 171.610 220.500 C 170.955 226.893, 170.984 227, 173.365 227 C 176.010 227, 177 225.365, 177 221 C 177 216.422, 177.974 215, 181.107 215 C 183.262 215, 184 214.525, 184 213.138 C 184 211.582, 182.935 211.167, 177.513 210.612 C 173.944 210.246, 170.403 209.708, 169.642 209.416 C 168.881 209.124, 167.974 209.627, 167.626 210.533 M 156 212.500 C 156 213.628, 156.702 214.039, 158.250 213.820 C 159.488 213.644, 160.500 213.050, 160.500 212.500 C 160.500 211.950, 159.488 211.356, 158.250 211.180 C 156.702 210.961, 156 211.372, 156 212.500 M 183.661 218.750 C 182.185 223.012, 180.982 226.838, 180.988 227.250 C 181.010 228.669, 186.063 227.998, 186.638 226.500 C 187.362 224.615, 192.601 224.518, 193.314 226.376 C 193.653 227.261, 194.785 227.573, 196.479 227.249 C 197.940 226.969, 198.916 226.224, 198.668 225.578 C 198.422 224.936, 196.933 221.398, 195.360 217.717 C 192.719 211.534, 192.265 211.021, 189.423 211.011 C 186.480 211, 186.229 211.338, 183.661 218.750 M 188.605 218.588 C 187.750 220.816, 187.818 221, 189.500 221 C 190.325 221, 191 220.352, 191 219.559 C 191 217.443, 189.307 216.757, 188.605 218.588 M 93.500 228.134 C 88 233.130, 83.339 237.651, 83.143 238.180 C 81.992 241.282, 103.695 257.364, 119.328 264.993 C 171.210 290.313, 235.059 282.226, 278.682 244.811 C 282.087 241.890, 284.902 239.021, 284.937 238.435 C 284.972 237.849, 281.512 234.024, 277.249 229.935 C 264.273 217.487, 266.304 218.199, 258.363 223.320 C 241.316 234.312, 224.506 241.659, 206 246.205 C 193.093 249.376, 170.978 249.152, 157.915 245.718 C 140.568 241.159, 127.736 235.215, 111.775 224.347 C 107.456 221.406, 103.828 219.011, 103.711 219.025 C 103.595 219.039, 99 223.138, 93.500 228.134 M 133.337 244.103 C 136.076 254.244, 136.336 257.704, 134.669 261.869 C 133.751 264.163, 133 266.212, 133 266.422 C 133 266.731, 138.734 269, 139.513 269 C 139.632 269, 140.504 266.970, 141.451 264.488 C 142.809 260.934, 144.535 259.006, 149.590 255.398 C 153.119 252.880, 155.775 250.445, 155.492 249.987 C 155.209 249.529, 153.581 248.847, 151.875 248.473 C 149.527 247.957, 148.067 248.314, 145.865 249.941 C 142.585 252.367, 141 251.941, 141 248.632 C 141 245.511, 139.025 243.236, 135.595 242.407 C 132.897 241.755, 132.736 241.877, 133.337 244.103 M 228.684 243.242 C 227.189 244.335, 227.062 245.034, 227.941 247.345 C 229.414 251.218, 229.330 251.529, 226.453 252.839 C 222.698 254.551, 222.169 254.341, 220.564 250.500 C 219.760 248.575, 218.883 247, 218.616 247 C 216.811 247, 213 249.170, 213 250.198 C 213 250.884, 214.688 255.877, 216.750 261.294 C 220.465 271.050, 220.528 271.137, 223.427 270.561 C 227.402 269.771, 227.492 269.585, 226.114 264.986 C 224.704 260.280, 225.006 259.542, 228.896 258.186 C 231.699 257.209, 231.852 257.323, 233.494 261.624 C 234.951 265.438, 235.501 265.979, 237.347 265.414 C 241.878 264.027, 241.911 263.397, 238.001 252.731 C 234.074 242.015, 232.522 240.435, 228.684 243.242 M 179.676 252.715 C 178.027 255.383, 171.048 274.269, 171.463 274.941 C 172.417 276.485, 177.140 275.749, 178.310 273.875 C 180.030 271.121, 187.561 271.215, 188.290 274 C 188.690 275.532, 189.654 276, 192.406 276 C 194.383 276, 195.996 275.663, 195.991 275.250 C 195.986 274.837, 194.238 269.550, 192.106 263.500 L 188.231 252.500 184.207 252.197 C 181.994 252.030, 179.955 252.263, 179.676 252.715 M 182.291 262.405 C 181.339 265.504, 181.398 266.215, 182.642 266.693 C 185.265 267.700, 186.234 265.560, 184.775 261.985 L 183.431 258.690 182.291 262.405" stroke="none" fill="#cce438" fill-rule="evenodd"/><path d="M 174 5.728 C 145.401 8.702, 121.029 20.691, 101.143 41.569 C 80.113 63.649, 69.725 89.487, 69.613 120 C 69.558 134.748, 71.069 143.911, 75.922 158.268 C 88.738 196.184, 122.024 224.953, 163 233.528 C 173.180 235.658, 195.028 235.639, 205.500 233.489 C 229.646 228.534, 248.892 218.289, 265.698 201.447 C 306.966 160.089, 310.971 94.700, 274.998 49.606 C 256.482 26.394, 229.565 10.509, 202 6.527 C 197.215 5.836, 178.188 5.293, 174 5.728 M 172.665 12.750 C 172.416 13.162, 171.076 17.212, 169.687 21.750 L 167.162 30 169.612 30 C 170.960 30, 172.322 29.325, 172.638 28.500 C 173.285 26.815, 180 26.359, 180 28 C 180 28.550, 181.125 29, 182.500 29 C 185.758 29, 185.676 27.918, 181.767 19.284 C 178.901 12.955, 178.170 12.064, 175.809 12.034 C 174.329 12.015, 172.914 12.338, 172.665 12.750 M 189.756 12.628 C 189.474 13.108, 188.925 16.987, 188.536 21.250 C 187.976 27.391, 188.107 29.009, 189.165 29.045 C 189.899 29.070, 192.882 29.334, 195.793 29.632 C 199.210 29.982, 201.602 29.745, 202.543 28.965 C 204.294 27.511, 204.498 22, 202.800 22 C 201.867 22, 201.867 21.733, 202.800 20.800 C 204.540 19.060, 204.287 14.324, 202.415 13.606 C 199.436 12.462, 190.270 11.755, 189.756 12.628 M 210.283 18.822 C 209.428 20.845, 208.509 24.385, 208.241 26.690 C 207.787 30.591, 207.986 31.021, 211.127 32.936 C 214.959 35.272, 218.838 35.583, 221.291 33.750 C 223.467 32.124, 227.321 20.921, 226.117 19.717 C 224.088 17.688, 221.636 19.606, 220.004 24.500 C 218.767 28.211, 217.777 29.583, 216.164 29.820 C 213.157 30.263, 212.703 28.297, 214.469 22.476 C 216.379 16.179, 216.392 16.336, 213.919 15.689 C 212.249 15.252, 211.530 15.871, 210.283 18.822 M 195 17.427 C 195 18.354, 195.855 19, 197.083 19 C 199.520 19, 199.176 16.663, 196.667 16.177 C 195.680 15.985, 195 16.495, 195 17.427 M 148.262 17.817 C 147.291 18.434, 147.281 19.284, 148.217 21.763 C 149.866 26.132, 148.752 26.675, 144.613 23.519 C 142.213 21.688, 140.444 21.042, 139.047 21.485 C 136.474 22.302, 136.485 23.527, 139.133 30.712 C 141.904 38.230, 142.714 39.223, 145.057 37.969 C 146.767 37.054, 146.798 36.678, 145.466 32.903 L 144.027 28.826 148.442 31.413 C 156.785 36.302, 158.230 34.637, 154.505 24.424 C 151.881 17.231, 150.870 16.161, 148.262 17.817 M 175 21 C 175 22.100, 175.633 23, 176.406 23 C 177.320 23, 177.630 22.300, 177.290 21 C 177.002 19.900, 176.369 19, 175.883 19 C 175.398 19, 175 19.900, 175 21 M 194 23.933 C 194 26.154, 197.333 26.889, 198.541 24.933 C 199.335 23.648, 199.140 23.445, 196.250 22.557 C 194.419 21.994, 194 22.250, 194 23.933 M 122.616 30.490 C 120.504 32.089, 120.709 35.328, 123.518 44.762 C 124.930 49.506, 125.278 49.922, 127.042 48.977 C 128.119 48.401, 129 47.115, 129 46.120 C 129 43.588, 132.190 40.976, 134.537 41.586 C 135.617 41.866, 137.331 41.486, 138.347 40.740 C 140.050 39.491, 139.606 38.978, 132.684 34.192 C 128.553 31.336, 125.022 29.014, 124.837 29.032 C 124.651 29.049, 123.652 29.706, 122.616 30.490 M 237.191 35.073 C 232.481 41.899, 232.381 42.241, 234.569 44.057 C 235.904 45.165, 236.487 44.922, 238.470 42.435 C 240.768 39.553, 240.832 39.538, 242.878 41.390 C 244.878 43.199, 244.891 43.376, 243.237 46.177 C 241.731 48.726, 241.703 49.201, 243.009 50.027 C 245.601 51.665, 246.396 51.106, 250.934 44.446 C 255.070 38.378, 255.257 37.828, 253.705 36.276 C 252.153 34.725, 251.872 34.772, 249.531 36.971 C 247.090 39.264, 246.965 39.278, 245.002 37.502 C 243.121 35.799, 243.095 35.552, 244.630 33.856 C 245.972 32.373, 246.043 31.757, 245.016 30.519 C 242.900 27.969, 241.552 28.754, 237.191 35.073 M 174.302 34.020 C 142.714 38.339, 116.097 58.533, 104.194 87.210 C 95.376 108.456, 95.852 135.825, 105.401 156.493 C 109.811 166.036, 113.754 171.682, 122.277 180.655 C 138.698 197.942, 160.241 206.986, 185 206.986 C 203.272 206.986, 217.720 202.676, 232.137 192.924 C 270.579 166.921, 282.410 117.201, 259.701 77.077 C 251.613 62.787, 235.318 48.081, 219.817 41.084 C 206.861 35.235, 187.448 32.222, 174.302 34.020 M 126.015 36.750 C 126.051 38.475, 127.861 40.204, 128.937 39.539 C 129.816 38.996, 129.813 38.480, 128.926 37.411 C 127.672 35.899, 125.990 35.518, 126.015 36.750 M 167.516 37.602 C 132.107 45.479, 106.050 73.048, 100.932 108.050 C 97.991 128.165, 102.556 149.355, 113.524 166.500 C 117.551 172.795, 127.625 184, 129.258 184 C 129.783 184, 131.049 182.936, 132.072 181.635 C 135.300 177.532, 139.336 176.475, 144.396 178.407 C 146.793 179.323, 149.555 180.956, 150.533 182.036 C 152.976 184.736, 156.464 184.497, 158.848 181.466 C 159.979 180.028, 161.111 179.371, 161.467 179.946 C 162.451 181.538, 160.128 185.001, 157.374 186.048 C 154.685 187.070, 153.529 186.656, 147.325 182.446 C 142.473 179.153, 138.017 179.256, 134.532 182.740 L 131.792 185.481 135.646 188.815 C 140.949 193.401, 153.897 199.588, 163.500 202.124 C 169.425 203.689, 174.742 204.264, 184 204.343 C 202.837 204.504, 215.752 200.780, 230.529 190.925 C 241.327 183.724, 241.843 182.577, 235.615 179.622 C 229.991 176.953, 226.233 177.494, 222.564 181.500 C 218.890 185.511, 215.476 186.017, 211.861 183.086 C 208.910 180.694, 210.045 179.218, 213.158 181.398 C 216.345 183.630, 217.890 183.409, 220.274 180.379 C 222.626 177.389, 227.875 174.890, 230.634 175.446 C 233.980 176.121, 238.460 178.106, 240.211 179.691 C 242.619 181.870, 244.228 180.936, 249.497 174.303 C 267.031 152.228, 273.051 124.752, 266.093 98.558 C 258.502 69.981, 235.100 46.570, 206.446 38.888 C 195.869 36.053, 177.246 35.438, 167.516 37.602 M 180.321 40.750 C 179.982 41.712, 179.096 44.017, 178.352 45.872 C 176.739 49.895, 176.663 51, 178 51 C 178.550 51, 179 50.100, 179 49 C 179 47.637, 179.667 47, 181.094 47 C 182.346 47, 183.397 47.803, 183.710 49 C 183.998 50.100, 184.886 51, 185.684 51 C 186.591 51, 186.946 50.344, 186.631 49.250 C 186.354 48.288, 185.578 45.587, 184.905 43.250 C 183.648 38.876, 181.411 37.656, 180.321 40.750 M 190.629 42.827 C 189.594 49.090, 189.870 52, 191.500 52 C 192.500 52, 193 51, 193 49 C 193 46.667, 193.444 46, 195 46 C 196.619 46, 197 46.667, 197 49.500 C 197 51.425, 197.423 53, 197.941 53 C 199.413 53, 199.766 51.894, 200.146 46.087 C 200.388 42.380, 200.106 40.541, 199.250 40.253 C 198.464 39.989, 198 40.793, 198 42.417 C 198 44.333, 197.484 45, 196 45 C 194.557 45, 194 44.333, 194 42.607 C 194 38.497, 191.316 38.672, 190.629 42.827 M 167.133 40.900 C 166.026 41.599, 166.200 42.351, 168.047 44.850 C 169.303 46.548, 170.389 48.739, 170.461 49.719 C 170.595 51.533, 171.136 52, 173.108 52 C 173.778 52, 173.979 51.053, 173.616 49.605 C 173.285 48.287, 173.692 45.587, 174.521 43.605 C 175.713 40.752, 175.756 40, 174.726 40 C 174.011 40, 173.354 40.951, 173.266 42.113 C 173.079 44.595, 171.900 45.982, 171.327 44.392 C 170.337 41.642, 168.448 40.070, 167.133 40.900 M 108.106 43.082 C 99.754 48.161, 103.486 57.294, 112.126 52.921 C 115.797 51.063, 117 51.247, 117 53.667 C 117 54.404, 115.937 55, 114.622 55 C 111.959 55, 109.485 57.358, 110.473 58.956 C 111.650 60.861, 115.690 60.037, 118.384 57.343 C 121.960 53.767, 122.700 50.431, 120.464 47.960 C 118.174 45.429, 115.575 45.481, 111.267 48.144 C 108.035 50.142, 107.822 50.162, 108.154 48.438 C 108.350 47.420, 109.631 46.323, 111 46 C 113.779 45.344, 114.873 42.549, 112.680 41.707 C 111.899 41.408, 109.841 42.027, 108.106 43.082 M 180.651 43.466 C 179.889 45.453, 180.350 46.409, 181.803 45.854 C 182.314 45.659, 182.421 44.633, 182.041 43.573 C 181.384 41.742, 181.315 41.737, 180.651 43.466 M 160.574 46.750 C 161.310 48.813, 161.932 51.561, 161.956 52.857 C 161.988 54.587, 162.421 55.053, 163.582 54.607 C 164.452 54.273, 165.299 54, 165.464 54 C 165.629 54, 165.162 52.313, 164.426 50.250 C 163.690 48.188, 163.068 45.712, 163.044 44.750 C 163.018 43.719, 162.227 43, 161.118 43 C 159.372 43, 159.332 43.271, 160.574 46.750 M 209.426 49.525 C 207.386 52.014, 206.011 54.344, 206.369 54.702 C 206.727 55.061, 207.590 54.575, 208.287 53.623 C 209.925 51.383, 213.298 52.485, 212.500 55 C 212.176 56.019, 212.533 56.991, 213.345 57.302 C 214.378 57.698, 214.915 56.633, 215.375 53.281 C 216.733 43.373, 215.240 42.430, 209.426 49.525 M 148.431 47.117 L 146.361 48.145 148.810 53.322 C 151.756 59.549, 151.607 59.361, 152.936 58.539 C 153.694 58.071, 153.690 57.288, 152.922 55.854 C 151.469 53.140, 152.548 52.281, 154.823 54.339 C 156.697 56.035, 160 56.610, 160 55.241 C 160 54.823, 159.131 53.939, 158.070 53.276 C 157.008 52.613, 155.996 50.817, 155.820 49.285 C 155.573 47.136, 154.929 46.453, 153 46.295 C 151.625 46.182, 149.569 46.552, 148.431 47.117 M 150.615 47.814 C 149.864 49.028, 150.882 52, 152.048 52 C 153.764 52, 154.183 49.755, 152.737 48.308 C 151.808 47.380, 151 47.191, 150.615 47.814 M 256.329 49.813 C 252.384 51.296, 248.833 52.834, 248.436 53.231 C 247.391 54.275, 249.944 57, 251.967 57 C 254.389 57, 257.179 60.370, 256.412 62.368 C 255.792 63.986, 257.483 67, 259.011 67 C 259.432 67, 261.581 63.513, 263.786 59.250 C 267.527 52.019, 267.694 51.349, 266.276 49.250 C 264.447 46.542, 265.131 46.504, 256.329 49.813 M 211.729 48.604 C 211.328 49.005, 211 50.023, 211 50.867 C 211 51.992, 211.296 52.104, 212.113 51.287 C 212.724 50.676, 213.053 49.657, 212.842 49.025 C 212.631 48.392, 212.130 48.203, 211.729 48.604 M 220 49.469 C 220 50.363, 220.586 50.712, 221.500 50.362 C 223.579 49.564, 223.365 50.819, 220.597 55.659 C 218.880 58.663, 218.522 60.122, 219.309 60.909 C 220.852 62.452, 222 62.262, 222 60.465 C 222 59.220, 223.873 55.508, 225.752 53.029 C 225.948 52.770, 226.484 53.165, 226.943 53.907 C 227.401 54.649, 228.284 54.942, 228.905 54.559 C 230.530 53.555, 229.406 52.248, 224.972 49.986 C 220.315 47.610, 220 47.577, 220 49.469 M 140.494 52.010 C 139.526 53.577, 145.997 62.938, 147.619 62.316 C 149.078 61.756, 149.541 60, 148.229 60 C 147.805 60, 146.352 57.975, 145 55.500 C 142.493 50.911, 141.600 50.219, 140.494 52.010 M 259.008 53.974 C 257.885 54.684, 257.800 55.200, 258.666 56.066 C 259.531 56.931, 260.093 56.694, 260.943 55.107 C 262.146 52.858, 261.434 52.440, 259.008 53.974 M 231.667 55.667 C 230.452 56.881, 230.976 57.947, 232.500 57.362 C 233.325 57.045, 234 57.223, 234 57.758 C 234 58.796, 230.178 64.074, 228.656 65.138 C 227.685 65.817, 228.609 68, 229.867 68 C 230.279 68, 231.940 66.211, 233.558 64.024 C 236.681 59.803, 238 59.053, 238 61.500 C 238 62.325, 238.450 63, 239 63 C 241.084 63, 239.870 60.397, 236.553 57.750 C 232.795 54.751, 232.646 54.688, 231.667 55.667 M 132.033 58.750 C 132.051 59.712, 132.869 62.827, 133.852 65.671 C 135.275 69.789, 135.930 70.638, 137.069 69.844 C 138.162 69.083, 138.205 68.728, 137.250 68.341 C 136.563 68.062, 136 67.182, 136 66.385 C 136 64.404, 139.010 63.398, 140.025 65.040 C 140.704 66.140, 141.123 66.143, 142.428 65.060 C 143.814 63.909, 143.363 63.337, 138.754 60.400 C 132.691 56.536, 131.988 56.363, 132.033 58.750 M 92.958 61.078 C 91.542 63.725, 91.862 64.482, 97.597 72.023 C 101.968 77.769, 102.443 78.114, 103.674 76.431 C 104.408 75.427, 104.761 73.822, 104.457 72.865 C 103.745 70.621, 106.005 67, 108.118 67 C 110.054 67, 112.591 64.258, 111.586 63.252 C 110.889 62.556, 97.595 59.122, 95.285 59.042 C 94.617 59.019, 93.570 59.935, 92.958 61.078 M 134.389 62.570 C 134.725 63.447, 135 64.378, 135 64.641 C 135 64.903, 135.450 64.840, 136 64.500 C 137.484 63.583, 137.213 62.296, 135.389 61.596 C 134.209 61.143, 133.941 61.404, 134.389 62.570 M 267.250 64.613 C 260.973 68.198, 260.231 69.235, 261.973 71.991 C 262.798 73.296, 263.283 73.264, 265.871 71.736 C 268.800 70.005, 268.843 70.014, 270.846 72.745 C 273.478 76.334, 275.759 74.760, 273.885 70.648 C 272.473 67.548, 273.700 65.633, 275.367 68.337 C 278.367 73.200, 278.808 73.556, 280.172 72.211 C 281.246 71.151, 281.004 70.082, 278.811 66.211 C 277.344 63.620, 275.549 61.397, 274.822 61.272 C 274.095 61.146, 270.688 62.649, 267.250 64.613 M 126.474 63.042 C 125.974 63.851, 126.112 64.537, 126.823 64.774 C 127.470 64.990, 128 66.020, 128 67.062 C 128 68.735, 127.698 68.820, 125.428 67.785 C 123.349 66.838, 122.687 66.888, 121.970 68.048 C 121.294 69.142, 121.904 69.723, 124.534 70.492 C 126.432 71.046, 128.939 72.327, 130.105 73.337 C 131.708 74.725, 132.504 74.891, 133.363 74.016 C 134.215 73.148, 133.988 72.438, 132.454 71.179 C 131.329 70.256, 129.709 67.745, 128.855 65.601 C 127.748 62.819, 127.065 62.085, 126.474 63.042 M 99 66.500 C 99.685 67.325, 100.640 68, 101.122 68 C 101.605 68, 102 67.325, 102 66.500 C 102 65.638, 101.098 65, 99.878 65 C 98.104 65, 97.960 65.247, 99 66.500 M 237.179 67.921 C 232.576 69.405, 232.070 69.813, 233.429 70.941 C 234.483 71.816, 235 71.875, 235 71.122 C 235 69.448, 237.973 69.766, 238.643 71.513 C 238.963 72.345, 238.734 73.615, 238.136 74.337 C 237.347 75.287, 237.372 75.972, 238.229 76.829 C 239.137 77.737, 240.166 76.795, 242.682 72.755 C 244.482 69.865, 245.965 67.162, 245.977 66.750 C 246.011 65.623, 243.104 66.010, 237.179 67.921 M 183.232 74.500 C 180.099 84.521, 179.016 92.783, 179.008 106.750 C 178.999 120.024, 178.971 120.080, 173.421 117.970 C 168.989 116.285, 155.894 114.789, 151.432 115.458 L 147.282 116.080 140.203 130.790 C 125.176 162.011, 124.208 164.324, 124.731 167.750 C 125.124 170.325, 125.702 171, 127.514 171 C 132.041 171, 153.630 175.071, 159.635 177.057 C 163.009 178.173, 168.722 180.867, 172.330 183.043 C 178.043 186.489, 179.669 187, 184.918 187 C 189.592 187, 191.907 186.428, 195.223 184.453 C 208.645 176.460, 219.770 172.965, 236.750 171.407 L 244 170.742 244 167.003 C 244 164.354, 241.425 157.908, 235.163 144.882 C 230.303 134.772, 225.290 124.176, 224.024 121.335 C 222.072 116.959, 221.216 116.076, 218.420 115.551 C 214.167 114.753, 202.881 115.812, 196.568 117.602 C 193.856 118.371, 191.539 119, 191.419 119 C 191.299 119, 191.030 113.263, 190.821 106.250 C 190.520 96.145, 190.048 92.774, 188.546 90 C 187.254 87.615, 186.454 83.473, 186.036 77 L 185.422 67.500 183.232 74.500 M 239.143 68.890 C 238.197 69.490, 238.122 69.957, 238.893 70.434 C 240.162 71.218, 242 70.334, 242 68.941 C 242 67.778, 240.928 67.759, 239.143 68.890 M 86.065 73.250 C 85.463 74.805, 85.660 76.234, 86.703 77.876 C 87.959 79.855, 87.985 80.395, 86.855 81.110 C 86.110 81.583, 84.757 81.976, 83.848 81.985 C 82.912 81.993, 81.734 83.325, 81.130 85.057 C 80.191 87.750, 80.269 88.052, 81.782 87.594 C 87.587 85.837, 92.547 85.222, 94.120 86.064 C 97.428 87.835, 100 87.198, 100 84.608 C 100 82.887, 99.295 82.040, 97.481 81.585 C 96.036 81.222, 93.439 78.832, 91.387 75.976 C 89.421 73.239, 87.615 71, 87.374 71 C 87.133 71, 86.544 72.013, 86.065 73.250 M 117.036 74.433 C 114.803 78.605, 116.311 80.330, 121.512 79.551 C 125.200 78.997, 126 79.156, 126 80.439 C 126 81.297, 125.325 82, 124.500 82 C 123.675 82, 123 82.450, 123 83 C 123 83.550, 123.659 84, 124.465 84 C 126.479 84, 128.251 80.366, 127.457 77.863 C 126.819 75.853, 125.174 75.683, 120.059 77.101 C 119.267 77.320, 118.447 76.713, 118.236 75.750 C 117.994 74.642, 118.452 74, 119.486 74 C 120.383 74, 120.840 73.550, 120.500 73 C 119.504 71.388, 118.427 71.833, 117.036 74.433 M 246.055 76.531 C 244.160 77.869, 242.135 79.140, 241.555 79.357 C 240.852 79.619, 240.903 80.178, 241.708 81.033 C 242.684 82.070, 243.208 82.072, 244.445 81.046 C 246.097 79.675, 249 80.277, 249 81.990 C 249 82.569, 247.879 83.554, 246.508 84.178 C 244.622 85.038, 244.277 85.629, 245.091 86.610 C 245.948 87.642, 247.162 87.254, 251.064 84.703 C 255.554 81.766, 257.176 78.979, 253.875 79.872 C 253.119 80.076, 251.713 80.466, 250.750 80.739 C 248.554 81.359, 248.320 78.198, 250.500 77.362 C 252.310 76.667, 252.513 73.980, 250.750 74.049 C 250.063 74.076, 247.950 75.193, 246.055 76.531 M 278.002 80.498 C 277.272 81.377, 276.570 83.763, 276.442 85.798 C 276.117 90.955, 276.106 91, 275.107 91 C 273.622 91, 272.891 87.836, 274.052 86.437 C 274.837 85.491, 274.814 84.522, 273.969 82.942 L 272.799 80.756 270.727 82.829 C 268.869 84.686, 268.775 85.306, 269.818 88.788 C 271.461 94.272, 274.297 96.632, 277.780 95.413 C 280.215 94.561, 280.532 93.907, 280.805 89.165 C 281.144 83.263, 283.500 82.239, 283.500 87.993 C 283.500 92.089, 285.572 93.034, 287.117 89.643 C 289.704 83.965, 281.748 75.984, 278.002 80.498 M 111.980 83.038 C 109.668 87.358, 114.329 91.271, 117.733 87.867 C 118.356 87.244, 119.683 87.053, 120.683 87.442 C 122.376 88.100, 122.347 88.273, 120.264 89.973 C 118.429 91.470, 118.301 91.901, 119.545 92.379 C 121.676 93.197, 123.789 88.462, 122.315 86.172 C 121.214 84.462, 119.234 84.282, 115.250 85.529 C 113.554 86.060, 113 85.835, 113 84.617 C 113 83.727, 113.450 83, 114 83 C 114.550 83, 115 82.550, 115 82 C 115 80.267, 113.116 80.914, 111.980 83.038 M 252.770 88.339 C 249.659 89.760, 248.033 91.128, 248.020 92.333 C 248.009 93.342, 248.338 93.994, 248.750 93.782 C 249.162 93.571, 251.637 92.387, 254.250 91.152 C 256.863 89.917, 259 88.252, 259 87.453 C 259 85.628, 258.567 85.690, 252.770 88.339 M 87.500 93.663 C 78.642 95.262, 78.179 95.512, 77.779 98.915 C 77.546 100.899, 78.704 102.023, 84.856 105.781 C 90.735 109.372, 92.389 109.996, 93.091 108.887 C 94.275 107.017, 94.228 105, 93 105 C 92.450 105, 92 103.425, 92 101.500 C 92 98.667, 92.381 98, 94 98 C 95.556 98, 96 97.333, 96 95 C 96 93.350, 95.888 92.049, 95.750 92.109 C 95.612 92.169, 91.900 92.868, 87.500 93.663 M 107 95.288 C 107 96.870, 115.887 104.446, 116.741 103.593 C 117.078 103.255, 116.575 102.410, 115.623 101.713 C 113.383 100.076, 114.515 96.640, 117.073 97.309 C 118.568 97.700, 120 96.286, 120 94.418 C 120 94.188, 117.075 94, 113.500 94 C 108.864 94, 107 94.369, 107 95.288 M 254.250 95.341 C 251.229 96.083, 250 96.900, 250 98.167 C 250 99.639, 250.567 99.842, 253.250 99.331 L 256.500 98.712 254.250 101.170 C 251.893 103.746, 251.306 106, 252.992 106 C 253.537 106, 254.535 105.116, 255.210 104.036 C 255.996 102.777, 257.166 102.242, 258.468 102.546 C 261.922 103.352, 263.344 101.647, 262.587 97.610 C 261.847 93.667, 261.480 93.568, 254.250 95.341 M 111 98 C 111 98.550, 111.675 99, 112.500 99 C 113.325 99, 114 98.550, 114 98 C 114 97.450, 113.325 97, 112.500 97 C 111.675 97, 111 97.450, 111 98 M 257.500 98 C 257.160 98.550, 257.161 99.451, 257.502 100.003 C 258.233 101.186, 262 99.479, 262 97.965 C 262 96.690, 258.292 96.719, 257.500 98 M 280.250 98.639 C 274.708 99.968, 274 100.414, 274 102.569 C 274 105.376, 274.565 105.436, 284 103.637 C 289.893 102.514, 290.500 102.170, 290.500 99.949 C 290.500 96.878, 288.606 96.636, 280.250 98.639 M 84 99.465 C 84 99.720, 84.900 100.411, 86 101 C 87.596 101.854, 88 101.760, 88 100.535 C 88 99.667, 87.131 99, 86 99 C 84.900 99, 84 99.209, 84 99.465 M 260 107.666 C 254.328 108.560, 253 109.114, 253 110.586 C 253 111.583, 253.624 111.959, 254.750 111.640 C 255.713 111.369, 258.413 110.849, 260.750 110.485 C 263.431 110.068, 265 109.303, 265 108.412 C 265 106.995, 264.620 106.938, 260 107.666 M 76 111.477 C 76 113.043, 76.959 114.582, 78.606 115.662 L 81.213 117.369 78.606 119.268 C 77.041 120.409, 76 122.132, 76 123.583 C 76 126.615, 76.646 126.605, 81.215 123.500 C 83.668 121.833, 86.267 121, 89.013 121 C 92.917 121, 93.116 120.856, 92.816 118.250 C 92.540 115.851, 91.970 115.429, 88.352 114.946 C 86.070 114.642, 82.613 113.179, 80.668 111.696 C 76.329 108.386, 76 108.371, 76 111.477 M 275.380 110.452 C 274.477 112.804, 275.886 114, 279.559 114 C 281.452 114, 283 114.450, 283 115 C 283 115.550, 282.598 116, 282.106 116 C 281.614 116, 279.838 117.283, 278.160 118.850 C 275.958 120.907, 275.265 122.299, 275.671 123.850 C 276.170 125.757, 276.926 125.998, 282.367 125.986 C 290.931 125.967, 293 125.266, 293 122.383 C 293 120.251, 292.552 119.997, 288.750 119.968 C 284.742 119.938, 284.614 119.850, 286.500 118.428 C 291.338 114.779, 293 112.881, 293 111.007 C 293 109.155, 292.343 109, 284.469 109 C 277.933 109, 275.807 109.340, 275.380 110.452 M 113.500 111 C 113.840 111.550, 114.541 112, 115.059 112 C 115.577 112, 116 111.550, 116 111 C 116 110.450, 115.298 110, 114.441 110 C 113.584 110, 113.160 110.450, 113.500 111 M 106 115.418 C 106 120.227, 108.985 121.357, 112.159 117.750 L 114.139 115.500 113.551 118.250 C 113.211 119.836, 113.393 121, 113.981 121 C 114.541 121, 115 119.425, 115 117.500 C 115 114.688, 114.614 114, 113.035 114 C 111.955 114, 110.582 114.913, 109.985 116.028 C 109.388 117.143, 108.450 117.778, 107.901 117.439 C 107.257 117.041, 107.319 116.321, 108.074 115.411 C 109 114.295, 108.906 114, 107.622 114 C 106.730 114, 106 114.638, 106 115.418 M 262 115.500 C 260.625 116.286, 258.262 116.945, 256.750 116.965 C 254.988 116.987, 254 117.539, 254 118.500 C 254 119.424, 254.938 120, 256.443 120 C 257.786 120, 260.486 120.944, 262.443 122.099 C 265.494 123.899, 266 123.970, 266 122.599 C 266 121.683, 265.171 121, 264.059 121 C 262.991 121, 261.854 120.573, 261.531 120.050 C 260.850 118.948, 264.426 116.759, 265.369 117.702 C 265.716 118.049, 266 117.358, 266 116.167 C 266 113.649, 265.410 113.551, 262 115.500 M 142.110 132.250 C 138.377 140.088, 133.612 149.999, 131.521 154.277 C 129.431 158.554, 127.923 162.257, 128.172 162.505 C 128.420 162.754, 133.698 163.665, 139.900 164.530 C 152.572 166.297, 166.199 169.635, 176.250 173.432 L 183 175.983 183 150.115 L 183 124.246 178.160 122.164 C 171.118 119.135, 165.505 118.052, 156.698 118.024 L 148.896 118 142.110 132.250 M 198.294 119.534 C 195.430 120.306, 191.493 121.603, 189.544 122.417 L 186 123.898 186 149.940 L 186 175.983 192.630 173.487 C 203.476 169.405, 216.813 166.107, 228.957 164.506 C 235.236 163.678, 240.489 163, 240.631 163 C 241.040 163, 236.809 153.679, 229.510 138.500 C 225.807 130.800, 222.147 123.037, 221.375 121.250 L 219.973 118 211.737 118.066 C 207.206 118.102, 201.157 118.763, 198.294 119.534 M 103 126.441 C 103 130.666, 104.340 133.055, 105.817 131.463 C 106.192 131.058, 105.935 130.524, 105.244 130.278 C 102.563 129.320, 105.354 128, 110.059 128 C 114.192 128, 115 127.699, 115 126.159 C 115 124.553, 114.446 124.401, 110.689 124.971 C 105.204 125.804, 103.487 125.323, 105.081 123.403 C 105.998 122.297, 105.901 122, 104.622 122 C 103.369 122, 103 123.011, 103 126.441 M 254 125 C 254 125.550, 254.675 126, 255.500 126 C 256.333 126, 257 126.889, 257 128 C 257 129.333, 256.333 130, 255 130 C 253.740 130, 253 130.667, 253 131.802 C 253 133.448, 253.519 133.518, 259 132.612 C 262.727 131.995, 265 131.130, 265 130.326 C 265 129.615, 262.765 127.901, 260.033 126.517 C 254.473 123.699, 254 123.580, 254 125 M 155.500 126.721 C 156.050 127.247, 159.875 128.194, 164 128.826 C 168.125 129.458, 172.512 130.258, 173.750 130.604 C 175.073 130.974, 176 130.793, 176 130.164 C 176 129.575, 174.313 128.590, 172.250 127.974 C 167.140 126.448, 154.204 125.480, 155.500 126.721 M 198.734 127.417 C 189.492 129.903, 190.936 131.544, 200.569 129.503 C 204.381 128.695, 208.738 128.027, 210.250 128.017 C 211.762 128.008, 213 127.550, 213 127 C 213 125.618, 204.499 125.866, 198.734 127.417 M 258 128.417 C 258 129.287, 258.712 130, 259.583 130 C 261.349 130, 261.042 127.847, 259.188 127.229 C 258.534 127.011, 258 127.546, 258 128.417 M 112.500 134.611 C 110.850 135.325, 108.305 135.930, 106.844 135.955 C 104.688 135.991, 104.286 136.377, 104.710 138 C 105.078 139.404, 106.074 140, 108.058 140 C 110.472 140, 113.581 141.943, 111.309 142.032 C 109.139 142.117, 106.857 144.973, 107.455 146.857 C 108.050 148.731, 108.310 148.768, 111.513 147.430 C 113.396 146.644, 116.061 146, 117.436 146 C 119.192 146, 119.774 145.575, 119.389 144.572 C 118.915 143.337, 118.279 143.336, 114.671 144.564 C 110.862 145.859, 110.674 145.847, 112.500 144.423 C 113.600 143.565, 115.126 142.503, 115.890 142.063 C 117.778 140.977, 116.229 138.707, 113.998 139.290 C 113.021 139.546, 111.640 139.396, 110.930 138.957 C 110.080 138.431, 110.896 137.923, 113.319 137.468 C 117.090 136.761, 117.516 136.313, 116.235 134.406 C 115.711 133.626, 114.639 133.685, 112.500 134.611 M 152 134.488 C 152 135.562, 153.086 136.010, 155.750 136.035 C 157.813 136.054, 162.425 136.714, 166 137.500 C 173.676 139.188, 176.331 139.345, 175.539 138.064 C 174.963 137.131, 164.328 134.643, 156.250 133.551 C 152.871 133.094, 152 133.286, 152 134.488 M 211 133.680 C 207.113 134.079, 193.984 136.999, 192.643 137.762 C 190.283 139.106, 194.774 139.571, 198.702 138.389 C 201.177 137.644, 206.081 136.740, 209.601 136.379 C 214.013 135.927, 216 135.301, 216 134.362 C 216 133.613, 215.662 133.072, 215.250 133.160 C 214.838 133.248, 212.925 133.482, 211 133.680 M 252 137.414 C 252 138.265, 253.125 139.244, 254.500 139.589 C 257.275 140.286, 257.234 140.226, 256.410 142.375 C 255.986 143.478, 254.996 143.749, 252.910 143.332 C 250.777 142.905, 250 143.134, 250 144.186 C 250 145.071, 251.911 146.112, 254.978 146.898 C 261.583 148.590, 261.455 148.593, 261.808 146.756 C 262.007 145.725, 261.295 145.038, 259.808 144.827 C 256.349 144.337, 256.864 141.500, 260.412 141.500 C 264.917 141.500, 264.538 139.472, 259.778 138.103 C 257.425 137.426, 254.713 136.646, 253.750 136.369 C 252.620 136.044, 252 136.414, 252 137.414 M 147 141.885 C 147 142.371, 149.588 143.085, 152.750 143.470 C 158.250 144.140, 168.982 146.249, 173.750 147.597 C 178.214 148.859, 175.916 146.134, 171.250 144.632 C 161.673 141.549, 147 139.887, 147 141.885 M 206.500 142.436 C 197.070 144.385, 192 145.995, 192 147.039 C 192 148.342, 192.570 148.284, 201.090 146.106 C 205.166 145.064, 211.537 143.886, 215.250 143.489 C 218.963 143.092, 222 142.369, 222 141.884 C 222 140.655, 213.685 140.951, 206.500 142.436 M 145 149.661 C 145 150.166, 149.613 151.314, 155.250 152.211 C 160.887 153.108, 167.680 154.585, 170.345 155.493 C 175.111 157.117, 177.302 156.902, 175.397 154.997 C 172.791 152.391, 145 147.512, 145 149.661 M 209.360 150.476 C 201.387 151.923, 194.976 153.802, 193.567 155.104 C 191.631 156.893, 193.803 156.866, 200.047 155.023 C 205.362 153.454, 219.407 151, 223.072 151 C 223.583 151, 224 150.550, 224 150 C 224 148.683, 218.199 148.872, 209.360 150.476 M 140.654 156.679 C 139.127 158.206, 140.375 158.748, 146.792 159.344 C 150.527 159.691, 157.164 160.928, 161.542 162.093 C 173.147 165.182, 174 165.331, 174 164.262 C 174 161.977, 142.516 154.817, 140.654 156.679 M 218.821 157.077 C 213.132 157.912, 196.153 162.513, 195.183 163.484 C 193.447 165.220, 197.097 164.914, 205.206 162.644 C 210.318 161.213, 217.537 159.745, 221.250 159.383 C 225.957 158.923, 228 158.312, 228 157.362 C 228 155.870, 227.214 155.846, 218.821 157.077 M 127.480 166.033 C 126.328 167.896, 128.007 168.742, 134.228 169.433 C 142.624 170.365, 158.550 173.837, 163.488 175.812 C 165.681 176.689, 170.399 179.116, 173.972 181.204 C 183.122 186.551, 185.628 186.351, 200.443 179.094 C 213.578 172.661, 221.188 170.448, 233.794 169.397 C 239.412 168.928, 242 168.311, 242 167.440 C 242 165.406, 240.174 165.285, 230.229 166.661 C 217.249 168.458, 205.728 171.320, 194.400 175.563 C 189.101 177.548, 184.030 178.945, 183.132 178.669 C 182.235 178.392, 177.742 176.801, 173.148 175.132 C 163.456 171.612, 151.647 168.647, 141 167.059 C 136.875 166.444, 132.280 165.744, 130.789 165.503 C 129.298 165.263, 127.809 165.501, 127.480 166.033 M 258.084 172.750 C 255.845 175.363, 254.010 177.954, 254.006 178.509 C 254.003 179.065, 253.100 180.081, 252 180.768 C 249.105 182.576, 249.502 184.028, 254.062 188.319 C 258.280 192.288, 258.576 193.621, 255.641 195.429 C 254.204 196.313, 253.183 195.735, 249.784 192.110 C 247.021 189.164, 245.278 188.013, 244.483 188.610 C 243.832 189.100, 241.450 190.732, 239.189 192.237 L 235.080 194.975 236.551 199.143 C 237.360 201.436, 237.885 203.448, 237.719 203.614 C 237.553 203.780, 235.891 202.614, 234.025 201.021 C 231.556 198.914, 230.184 198.366, 228.984 199.008 C 224.848 201.222, 224.913 202.392, 229.555 209.311 C 234.225 216.273, 234.848 216.752, 236.747 214.853 C 237.610 213.990, 237.151 212.627, 234.899 209.353 C 233.252 206.959, 232.149 205, 232.449 205 C 232.749 205, 234.725 206.564, 236.840 208.475 C 240.105 211.424, 240.944 211.761, 242.389 210.705 C 243.954 209.561, 243.966 209.163, 242.545 205.762 C 240.131 199.986, 240.716 199.309, 244.094 203.971 C 246.851 207.778, 247.351 208.077, 248.696 206.733 C 250.041 205.388, 249.814 204.613, 246.602 199.593 C 244.621 196.495, 243 193.691, 243 193.360 C 243 193.029, 244.800 194.613, 246.999 196.879 C 251.978 202.010, 254.642 202.147, 259.543 197.524 C 262.652 194.592, 263.122 193.614, 262.547 191.274 C 262.172 189.748, 260.229 186.813, 258.230 184.750 C 253.472 179.843, 254.970 179.982, 261.716 185.075 C 266.080 188.370, 267.390 188.921, 268.557 187.953 C 270.608 186.250, 270.345 184.355, 267.810 182.580 C 265.032 180.633, 266.149 179.477, 270.450 179.847 C 273.006 180.068, 274.176 179.591, 275.424 177.818 C 277.047 175.514, 277.031 175.497, 272.787 175 C 269.514 174.617, 268.438 174.033, 268.175 172.500 C 267.800 170.316, 265.335 168, 263.387 168 C 262.710 168, 260.324 170.137, 258.084 172.750 M 94.200 173.200 C 92.284 175.116, 92.803 178.495, 95.452 181.354 C 98.668 184.824, 100.777 184.692, 106.641 180.653 C 115.127 174.807, 112.808 170.348, 104.165 175.894 C 98.494 179.533, 98 179.628, 98 177.082 C 98 174.663, 97.001 172, 96.093 172 C 95.712 172, 94.860 172.540, 94.200 173.200 M 260.345 175.543 C 260.019 176.392, 260.014 177.347, 260.333 177.667 C 261.342 178.676, 264 177.128, 264 175.531 C 264 173.535, 261.112 173.545, 260.345 175.543 M 107.750 183.786 C 104.037 185.270, 101 186.995, 101 187.620 C 101 189.173, 103.705 191.300, 104.811 190.617 C 106.104 189.818, 110.342 194.637, 109.519 195.970 C 108.787 197.153, 110.633 200, 112.131 200 C 112.618 200, 114.691 196.615, 116.739 192.477 C 119.677 186.538, 120.233 184.591, 119.378 183.227 C 117.774 180.668, 115.248 180.789, 107.750 183.786 M 111.587 187.313 C 110.184 188.339, 110.016 188.892, 110.936 189.460 C 112.381 190.353, 114.396 188.689, 113.851 187.053 C 113.591 186.273, 112.901 186.352, 111.587 187.313 M 118.427 195.550 C 113.971 201.794, 113.841 202.165, 115.627 203.518 C 118.033 205.340, 118.657 205.337, 119.362 203.500 C 119.678 202.675, 120.986 202, 122.268 202 C 124.363 202, 124.555 202.371, 124.170 205.669 C 123.851 208.404, 124.205 209.677, 125.562 210.669 C 128.478 212.801, 128.999 212.286, 129.015 207.250 C 129.035 201.242, 129.595 200.455, 134.496 199.553 L 138.492 198.817 136.034 196.827 C 134.050 195.220, 132.729 194.964, 129.177 195.496 L 124.777 196.156 126.360 193.896 C 127.529 192.227, 127.657 191.292, 126.849 190.318 C 124.838 187.895, 123.134 188.954, 118.427 195.550 M 74.500 202.479 C 65.950 204.360, 56.739 208.023, 43.778 214.695 L 32.500 220.500 39 221.071 C 51.150 222.137, 53.224 225.488, 46.130 232.590 C 41.112 237.614, 39.017 242.369, 39.006 248.757 L 39 252.014 46.018 246.121 C 54.255 239.205, 64.667 233.479, 71.780 231.954 C 75.992 231.050, 77.371 231.140, 79.977 232.488 L 83.110 234.108 89.805 228.148 C 101.050 218.138, 102.345 216.510, 101.558 213.376 C 99.788 206.322, 92.375 200.988, 84.500 201.101 C 82.300 201.133, 77.800 201.753, 74.500 202.479 M 136.086 206.250 C 128.055 213.178, 128.039 214.212, 135.958 214.412 C 138.549 214.478, 139.717 215.098, 140.617 216.885 C 141.745 219.124, 143.741 220.950, 145.098 220.985 C 145.428 220.993, 146.245 217.079, 146.916 212.286 C 148.034 204.292, 147.990 203.466, 146.376 202.286 C 143.607 200.261, 142.560 200.664, 136.086 206.250 M 276.274 203.024 C 271.999 205.211, 268.683 209.388, 267.518 214.055 C 266.957 216.307, 267.946 217.584, 275.852 224.810 L 284.823 233.009 287.774 231.315 C 290.347 229.838, 291.425 229.777, 296.159 230.836 C 303.549 232.490, 316.792 240.159, 324.577 247.292 L 331 253.177 331 250.203 C 331 244.134, 327.711 236.655, 322.930 231.854 C 319.280 228.189, 318.504 226.850, 319.254 225.511 C 320.627 223.057, 326.224 221, 331.527 221 C 334.052 221, 335.874 220.605, 335.576 220.122 C 334.619 218.574, 310.630 207.197, 302.731 204.546 C 298.531 203.136, 291.811 201.731, 287.798 201.423 C 281.588 200.946, 279.870 201.185, 276.274 203.024 M 221 203.008 C 220.175 203.546, 215.749 205.140, 211.165 206.551 C 204.685 208.545, 202.961 209.455, 203.415 210.640 C 203.737 211.478, 204 212.341, 204 212.557 C 204 212.773, 205.265 212.697, 206.812 212.388 C 209.520 211.846, 209.686 212.049, 211.316 217.913 C 212.958 223.820, 214.071 224.875, 216.821 223.132 C 217.902 222.446, 217.838 221.249, 216.464 216.523 C 215.065 211.711, 215.011 210.608, 216.143 209.891 C 219.263 207.914, 221.106 208.989, 223.189 214 C 224.649 217.514, 225.831 219, 227.165 219 C 228.209 219, 229.299 218.385, 229.587 217.634 C 230.125 216.231, 224.224 201.988, 223.116 202.015 C 222.777 202.024, 221.825 202.470, 221 203.008 M 150.143 212.250 C 147.551 220.993, 147.526 221.604, 149.724 222.447 C 151.524 223.138, 154 220.743, 154 218.309 C 154 215.486, 155.979 217.209, 156.972 220.897 C 157.936 224.476, 159.501 226, 162.210 226 C 162.875 226, 163.015 224.498, 162.595 221.867 C 162.036 218.372, 162.256 217.509, 164.024 216.271 C 165.440 215.279, 166.015 213.950, 165.807 212.153 C 165.547 209.909, 164.575 209.162, 159.500 207.309 C 156.200 206.105, 153.228 205.092, 152.896 205.059 C 152.563 205.027, 151.324 208.262, 150.143 212.250 M 140.232 209 C 139.190 210.668, 139.233 211, 140.492 211 C 141.321 211, 142 210.812, 142 210.582 C 142 210.352, 142.273 209.452, 142.607 208.582 C 143.476 206.316, 141.714 206.627, 140.232 209 M 167.626 210.533 C 166.772 212.759, 167.692 214, 170.197 214 C 172.158 214, 172.238 214.371, 171.610 220.500 C 170.955 226.893, 170.984 227, 173.365 227 C 176.010 227, 177 225.365, 177 221 C 177 216.422, 177.974 215, 181.107 215 C 183.262 215, 184 214.525, 184 213.138 C 184 211.582, 182.935 211.167, 177.513 210.612 C 173.944 210.246, 170.403 209.708, 169.642 209.416 C 168.881 209.124, 167.974 209.627, 167.626 210.533 M 156 212.500 C 156 213.628, 156.702 214.039, 158.250 213.820 C 159.488 213.644, 160.500 213.050, 160.500 212.500 C 160.500 211.950, 159.488 211.356, 158.250 211.180 C 156.702 210.961, 156 211.372, 156 212.500 M 183.661 218.750 C 182.185 223.012, 180.982 226.838, 180.988 227.250 C 181.010 228.669, 186.063 227.998, 186.638 226.500 C 187.362 224.615, 192.601 224.518, 193.314 226.376 C 193.653 227.261, 194.785 227.573, 196.479 227.249 C 197.940 226.969, 198.916 226.224, 198.668 225.578 C 198.422 224.936, 196.933 221.398, 195.360 217.717 C 192.719 211.534, 192.265 211.021, 189.423 211.011 C 186.480 211, 186.229 211.338, 183.661 218.750 M 188.605 218.588 C 187.750 220.816, 187.818 221, 189.500 221 C 190.325 221, 191 220.352, 191 219.559 C 191 217.443, 189.307 216.757, 188.605 218.588 M 93.500 228.134 C 88 233.130, 83.339 237.651, 83.143 238.180 C 81.992 241.282, 103.695 257.364, 119.328 264.993 C 171.210 290.313, 235.059 282.226, 278.682 244.811 C 282.087 241.890, 284.902 239.021, 284.937 238.435 C 284.972 237.849, 281.512 234.024, 277.249 229.935 C 264.273 217.487, 266.304 218.199, 258.363 223.320 C 241.316 234.312, 224.506 241.659, 206 246.205 C 193.093 249.376, 170.978 249.152, 157.915 245.718 C 140.568 241.159, 127.736 235.215, 111.775 224.347 C 107.456 221.406, 103.828 219.011, 103.711 219.025 C 103.595 219.039, 99 223.138, 93.500 228.134 M 83.500 244 C 84.495 245.100, 85.535 246, 85.810 246 C 86.085 246, 85.495 245.100, 84.500 244 C 83.505 242.900, 82.465 242, 82.190 242 C 81.915 242, 82.505 242.900, 83.500 244 M 133.337 244.103 C 136.076 254.244, 136.336 257.704, 134.669 261.869 C 133.751 264.163, 133 266.212, 133 266.422 C 133 266.731, 138.734 269, 139.513 269 C 139.632 269, 140.504 266.970, 141.451 264.488 C 142.809 260.934, 144.535 259.006, 149.590 255.398 C 153.119 252.880, 155.775 250.445, 155.492 249.987 C 155.209 249.529, 153.581 248.847, 151.875 248.473 C 149.527 247.957, 148.067 248.314, 145.865 249.941 C 142.585 252.367, 141 251.941, 141 248.632 C 141 245.511, 139.025 243.236, 135.595 242.407 C 132.897 241.755, 132.736 241.877, 133.337 244.103 M 228.684 243.242 C 227.189 244.335, 227.062 245.034, 227.941 247.345 C 229.414 251.218, 229.330 251.529, 226.453 252.839 C 222.698 254.551, 222.169 254.341, 220.564 250.500 C 219.760 248.575, 218.883 247, 218.616 247 C 216.811 247, 213 249.170, 213 250.198 C 213 250.884, 214.688 255.877, 216.750 261.294 C 220.465 271.050, 220.528 271.137, 223.427 270.561 C 227.402 269.771, 227.492 269.585, 226.114 264.986 C 224.704 260.280, 225.006 259.542, 228.896 258.186 C 231.699 257.209, 231.852 257.323, 233.494 261.624 C 234.951 265.438, 235.501 265.979, 237.347 265.414 C 241.878 264.027, 241.911 263.397, 238.001 252.731 C 234.074 242.015, 232.522 240.435, 228.684 243.242 M 179.676 252.715 C 178.027 255.383, 171.048 274.269, 171.463 274.941 C 172.417 276.485, 177.140 275.749, 178.310 273.875 C 180.030 271.121, 187.561 271.215, 188.290 274 C 188.690 275.532, 189.654 276, 192.406 276 C 194.383 276, 195.996 275.663, 195.991 275.250 C 195.986 274.837, 194.238 269.550, 192.106 263.500 L 188.231 252.500 184.207 252.197 C 181.994 252.030, 179.955 252.263, 179.676 252.715 M 182.291 262.405 C 181.339 265.504, 181.398 266.215, 182.642 266.693 C 185.265 267.700, 186.234 265.560, 184.775 261.985 L 183.431 258.690 182.291 262.405" stroke="none" fill="#113e05" fill-rule="evenodd"/></svg>